<svg id="Bitcoin" xmlns="http://www.w3.org/2000/svg" width="22.462" height="22.465" viewBox="0 0 22.462 22.465">
  <g id="Group_329" data-name="Group 329">
    <path id="Path_760" data-name="Path 760" d="M141.822,40.386a11.228,11.228,0,1,1-8.179-13.613A11.229,11.229,0,0,1,141.822,40.386Z" transform="translate(-119.696 -26.437)" fill="#f7931a"/>
    <path id="Path_761" data-name="Path 761" d="M139.93,38.971c.224-1.495-.914-2.3-2.47-2.834l.5-2.025-1.232-.307-.491,1.971c-.324-.081-.657-.157-.987-.232l.495-1.984-1.232-.307-.505,2.024c-.268-.061-.531-.121-.787-.185v-.006l-1.7-.424-.328,1.316s.914.21.9.223a.656.656,0,0,1,.574.717l-.575,2.306a1.022,1.022,0,0,1,.128.041l-.13-.032-.806,3.231a.449.449,0,0,1-.565.293c.012.018-.9-.224-.9-.224l-.612,1.411,1.6.4c.3.075.591.153.879.227l-.51,2.048,1.231.307.505-2.026c.336.091.663.175.982.255l-.5,2.017,1.232.307.51-2.044c2.1.4,3.682.237,4.347-1.663a2.162,2.162,0,0,0-1.132-2.989,1.965,1.965,0,0,0,1.574-1.809Zm-2.816,3.948c-.381,1.53-2.958.7-3.793.5L134,40.7C134.833,40.911,137.512,41.324,137.114,42.92Zm.381-3.971c-.347,1.392-2.492.685-3.188.511L134.921,37C135.617,37.173,137.857,37.5,137.5,38.949Z" transform="translate(-123.748 -29.339)" fill="#fff"/>
  </g>
</svg>
