<svg width="22" height="22" viewBox="0 0 22 22" fill="none" xmlns="http://www.w3.org/2000/svg">
<path d="M10.9953 21.9905C17.0678 21.9905 21.9905 17.0678 21.9905 10.9953C21.9905 4.92275 17.0678 0 10.9953 0C4.92275 0 0 4.92275 0 10.9953C0 17.0678 4.92275 21.9905 10.9953 21.9905Z" fill="url(#paint0_linear)"/>
<path d="M10.9953 21.2234C16.6442 21.2234 21.2235 16.6441 21.2235 10.9952C21.2235 5.34639 16.6442 0.76709 10.9953 0.76709C5.34645 0.76709 0.767151 5.34639 0.767151 10.9952C0.767151 16.6441 5.34645 21.2234 10.9953 21.2234Z" fill="white"/>
<path d="M4.69769 10.8018C4.69769 10.8018 5.3318 11.7304 6.65664 12.5117C6.65664 12.5117 5.69415 4.41543 11.9447 3C10.3481 8.87686 13.9829 10.5301 15.3077 7.42746C17.5158 10.3829 15.8399 12.9646 15.8399 12.9646C16.7458 13.1005 17.5045 12.104 17.5045 12.104C17.5158 12.2286 17.5158 12.3531 17.5158 12.4777C17.5158 16.0786 14.5944 18.9887 11.0048 18.9887C7.41531 18.9887 4.49387 16.0672 4.49387 12.4777C4.48254 11.9002 4.56181 11.334 4.69769 10.8018Z" fill="#FF7337"/>
<path d="M17.5045 12.104C17.5045 12.104 16.7458 13.1005 15.8399 12.9646C15.8399 12.9646 17.5158 10.3829 15.3077 7.42746C13.9829 10.5301 10.3481 8.87686 11.9447 3C11.605 3.07926 11.2992 3.16985 11.0048 3.28309V18.9887C14.6057 18.9887 17.5158 16.0672 17.5158 12.4777C17.5158 12.3531 17.5045 12.2286 17.5045 12.104Z" fill="#DC4425"/>
<path d="M8.13995 16.1352C8.13995 17.7091 9.4195 18.9887 10.9935 18.9887C12.5674 18.9887 13.8469 17.7091 13.8469 16.1352C13.8469 15.2859 13.4846 14.5272 12.8958 14.0064C11.7861 15.5124 10.2121 13.225 11.4464 11.5718C11.4577 11.5605 8.13995 11.9795 8.13995 16.1352Z" fill="#FFD13E"/>
<path d="M13.8583 16.1351C13.8583 15.2859 13.496 14.5272 12.9072 14.0063C11.7975 15.5124 10.2235 13.225 11.4578 11.5718C11.4578 11.5718 11.2766 11.5945 11.0048 11.685V19C12.5788 18.9887 13.8583 17.7091 13.8583 16.1351Z" fill="#E9A627"/>
<defs>
<linearGradient id="paint0_linear" x1="0" y1="10.9983" x2="21.9966" y2="10.9983" gradientUnits="userSpaceOnUse">
<stop stop-color="#EF4136"/>
<stop offset="0.2183" stop-color="#F3593E"/>
<stop offset="0.5229" stop-color="#F77447"/>
<stop offset="0.7934" stop-color="#F9844C"/>
<stop offset="1" stop-color="#FA8A4E"/>
</linearGradient>
</defs>
</svg>
