<svg id="Layer_1" data-name="Layer 1" xmlns="http://www.w3.org/2000/svg" width="160" height="90" viewBox="0 0 160 90">
  <defs>
    <style>
      .cls-1 {
        fill: #fff;
      }
    </style>
  </defs>
  <g>
    <path id="_0da8ffff" data-name="#0da8ffff" class="cls-1" d="M47.49,38.73a7.73,7.73,0,0,1,4,.81A7.9,7.9,0,0,1,56,46.64V50a2.82,2.82,0,0,1,0,.41,1.18,1.18,0,0,1-.64.79,1.17,1.17,0,0,1-.71.08,1.13,1.13,0,0,1-.91-1.09V47.06a1.43,1.43,0,0,0-.14-.87,1.15,1.15,0,0,0-2.14.53v3.16a1.67,1.67,0,0,1-.05.59,1.14,1.14,0,0,1-2.08.24,1.57,1.57,0,0,1-.15-.91V46.66a1.14,1.14,0,0,0-1-1.08,1.19,1.19,0,0,0-1,.3,1.14,1.14,0,0,0-.35.83v3a2.14,2.14,0,0,1-.06.76,1.15,1.15,0,0,1-2.15,0,2,2,0,0,1-.07-.69V46.67a1.14,1.14,0,0,0-.92-1.09,1.16,1.16,0,0,0-1.21.56,1.24,1.24,0,0,0-.15.57v3.43a1.14,1.14,0,0,1-1.81.93,1.12,1.12,0,0,1-.47-.91V46.7a8,8,0,0,1,3-6.23,7.6,7.6,0,0,1,4.45-1.74Z"/>
    <path class="cls-1" d="M78.65,42.74H76.91a3.38,3.38,0,0,1,1.43-3,6.5,6.5,0,0,1,5.57-.24,2.64,2.64,0,0,1,1.66,2.59v6.43c0,.79.16.94.94.86l.26,0a.41.41,0,0,1,0,.1v1.31a3.22,3.22,0,0,1-1.89.11A1.38,1.38,0,0,1,84,50c-.08-.23-.14-.47-.2-.72a2,2,0,0,1-.19.21,4.84,4.84,0,0,1-4.92,1.48,3.14,3.14,0,0,1-2.33-3,4.66,4.66,0,0,1,.13-1.34,3,3,0,0,1,1.88-2,7.32,7.32,0,0,1,2-.47c.81-.1,1.61-.2,2.42-.32a1,1,0,0,0,.91-.92,1.69,1.69,0,0,0-1.39-2.1,4.54,4.54,0,0,0-1.94-.07,1.9,1.9,0,0,0-1.68,1.67,2,2,0,0,1,0,.41Zm5.1,2.13a6.82,6.82,0,0,1-2.36.66,14.77,14.77,0,0,0-2,.39,1.68,1.68,0,0,0-1.14,1.91,1.63,1.63,0,0,0,1.42,1.53,3.57,3.57,0,0,0,3.35-1.1,2,2,0,0,0,.53-1.06C83.71,46.46,83.7,45.7,83.75,44.87Zm24.71,2.24c0,.19-.07.35-.11.49a4.63,4.63,0,0,1-4.11,3.47,4.82,4.82,0,0,1-5.48-4A7.94,7.94,0,0,1,99.22,42a4.79,4.79,0,0,1,3.65-2.9A4.68,4.68,0,0,1,108.42,43c.13.84.16,1.7.24,2.58h-8.11a4.53,4.53,0,0,0,1.13,3.19,2.42,2.42,0,0,0,1.34.62,3,3,0,0,0,3.53-2.08c0-.17.13-.22.31-.21Zm-7.84-3.06h6.06a4.81,4.81,0,0,0-.52-2,2.48,2.48,0,0,0-1.42-1.22A3.13,3.13,0,0,0,100.62,44.05Zm12.2,6.63H111V39.25h1.74v1.6l.3-.34a4.34,4.34,0,0,1,4.61-1.36,2.85,2.85,0,0,1,2.17,2.42A7.87,7.87,0,0,1,120,43.1c0,2.45,0,4.9,0,7.36,0,.06,0,.13,0,.21h-1.88v-.31c0-2.29,0-4.58,0-6.87a5.23,5.23,0,0,0-.23-1.52,1.76,1.76,0,0,0-1.72-1.27A3,3,0,0,0,113,42.82a6,6,0,0,0-.17,1.53q0,3,0,6v.33ZM88.57,39.25h1.77V44.1l.24-.23,4.36-4.45a.53.53,0,0,1,.43-.19c.68,0,1.37,0,2.12,0-.11.11-.16.18-.23.24-1.28,1.28-2.55,2.58-3.84,3.84a.26.26,0,0,0,0,.4c1.4,2.23,2.78,4.45,4.17,6.68l.16.28H95.55a.35.35,0,0,1-.34-.2q-1.6-2.67-3.2-5.37c-.06-.08-.1-.16-.16-.25-.5.49-1,1-1.46,1.45a.46.46,0,0,0-.08.28v4.08h-1c-.24,0-.58.07-.71-.07s0-.45,0-.69V39.55A.62.62,0,0,0,88.57,39.25Zm-20.47,0-4.25,4.23c1.52,2.42,3,4.8,4.5,7.22l-.28,0H66.22a.4.4,0,0,1-.37-.22q-1.6-2.67-3.2-5.37c0-.08-.1-.14-.16-.25a6.71,6.71,0,0,1-.8.8A1.85,1.85,0,0,0,61,47.42c.06,1,0,2,0,2.93v.32H59.21V39.25H61V44l.11.08c.05-.08.08-.17.13-.24,1.44-1.48,2.89-3,4.33-4.44a.54.54,0,0,1,.45-.19c.6,0,1.2,0,1.8,0Zm3.52,1.91c.89-1.31,1.84-2.4,3.6-2.08v2a8.74,8.74,0,0,0-1.37.11,2.82,2.82,0,0,0-2.1,2.41c0,.24,0,.48,0,.72V50.7H69.89V39.27h1.73v1.87Z"/>
  </g>
</svg>
