<?xml version="1.0" encoding="utf-8"?>
<!-- Generator: Adobe Illustrator 24.2.3, SVG Export Plug-In . SVG Version: 6.00 Build 0)  -->
<svg version="1.1" id="Layer_1" xmlns="http://www.w3.org/2000/svg" xmlns:xlink="http://www.w3.org/1999/xlink" x="0px" y="0px"
	 viewBox="0 0 28.6 29" style="enable-background:new 0 0 28.6 29;" xml:space="preserve">
<style type="text/css">
	.st0{fill:#FFFFFF;}
</style>
<g>
	<path class="st0" d="M26,14.5c0-2.2-0.7-4.4-1.9-6.3l4.6-4.6l-3.4-3.4l-4.6,4.6c-3.8-2.5-8.8-2.5-12.7,0L3.4,0.2L0,3.6l4.6,4.6
		c-2.5,3.8-2.5,8.8,0,12.7L0,25.4l3.4,3.4L8,24.3c3.8,2.5,8.8,2.5,12.7,0l4.6,4.6l3.4-3.4l-4.6-4.6C25.3,19,26,16.8,26,14.5L26,14.5
		z M7.5,14.5c0-3.8,3-6.8,6.8-6.8c3.8,0,6.8,3,6.8,6.8c0,1-0.2,1.9-0.6,2.8L16,12.8l-3.4,3.4l4.5,4.5c-3.4,1.5-7.4,0-9-3.4
		C7.7,16.5,7.5,15.5,7.5,14.5z"/>
</g>
</svg>
