<svg id="Layer_1" data-name="Layer 1" xmlns="http://www.w3.org/2000/svg" width="160" height="90" viewBox="0 0 160 90">
  <defs>
    <style>
      .cls-1, .cls-2 {
        fill: #fff;
      }

      .cls-1 {
        fill-rule: evenodd;
      }
    </style>
  </defs>
  <g id="Page-1">
    <g id="wordmark">
      <path id="Fill-3" class="cls-1" d="M46.78,48.53,45.6,47.34a6,6,0,0,1-1.35,1,3.41,3.41,0,0,1-1.63.36,3.15,3.15,0,0,1-1.37-.29,3.28,3.28,0,0,1-1.09-.79,3.61,3.61,0,0,1-.71-1.18A4,4,0,0,1,39.2,45a4,4,0,0,1,.25-1.44,3.46,3.46,0,0,1,.71-1.17,3.4,3.4,0,0,1,1.09-.78,3.15,3.15,0,0,1,1.37-.29,3.51,3.51,0,0,1,1.59.35,5.6,5.6,0,0,1,1.32.94l1.17-1.35a6,6,0,0,0-.78-.65,4.94,4.94,0,0,0-2-.85,6.53,6.53,0,0,0-1.3-.12,5.49,5.49,0,0,0-2.17.42,5.41,5.41,0,0,0-1.69,1.16,5.29,5.29,0,0,0-1.1,1.71,5.45,5.45,0,0,0-.4,2.1,5.61,5.61,0,0,0,.4,2.1,5.32,5.32,0,0,0,1.11,1.7A5.08,5.08,0,0,0,40.46,50a5.18,5.18,0,0,0,2.1.42,6.06,6.06,0,0,0,1.33-.13A4.83,4.83,0,0,0,45,49.87a5.06,5.06,0,0,0,.94-.58,6.56,6.56,0,0,0,.84-.76"/>
      <path id="Fill-4" class="cls-1" d="M70.31,42.57a1.12,1.12,0,0,1,.44-.88A1.93,1.93,0,0,1,72,41.33a3.79,3.79,0,0,1,1.4.27,6.48,6.48,0,0,1,1.41.79l1-1.37a5.92,5.92,0,0,0-1.7-1,6,6,0,0,0-2-.33,4.53,4.53,0,0,0-1.41.21,3.31,3.31,0,0,0-1.11.61,3,3,0,0,0-.73,1,2.91,2.91,0,0,0-.26,1.23A3,3,0,0,0,68.74,44a2.34,2.34,0,0,0,.67.86,3.69,3.69,0,0,0,1.08.59,12.49,12.49,0,0,0,1.47.43,12,12,0,0,1,1.17.34,3.12,3.12,0,0,1,.71.35,1,1,0,0,1,.36.41,1.28,1.28,0,0,1,.09.5,1.12,1.12,0,0,1-.49,1,2.21,2.21,0,0,1-1.33.36,4.27,4.27,0,0,1-1.75-.35,6.62,6.62,0,0,1-1.52-1l-1.09,1.3a6.34,6.34,0,0,0,2,1.25,6.54,6.54,0,0,0,2.29.41,5,5,0,0,0,1.49-.21,3.29,3.29,0,0,0,1.16-.61,2.76,2.76,0,0,0,.75-1,3.11,3.11,0,0,0,.27-1.32,2.81,2.81,0,0,0-.21-1.13,2.33,2.33,0,0,0-.63-.84,3.38,3.38,0,0,0-1-.62,11.68,11.68,0,0,0-1.44-.46,11,11,0,0,1-1.22-.34,3.2,3.2,0,0,1-.76-.35,1.14,1.14,0,0,1-.38-.42,1.35,1.35,0,0,1-.1-.53"/>
      <polyline id="Fill-5" class="cls-1" points="90.5 42.72 90.5 50.12 92.31 50.12 92.31 39.8 90.37 39.8 87.22 44.68 84.08 39.8 82.14 39.8 82.14 50.12 83.94 50.12 83.94 42.75 87.18 47.58 87.24 47.58 90.5 42.72"/>
      <path id="Fill-6" class="cls-2" d="M107.45,45a4,4,0,0,1-.26,1.43,3.49,3.49,0,0,1-.72,1.17,3.24,3.24,0,0,1-1.1.78,3.3,3.3,0,0,1-1.41.29,3.55,3.55,0,0,1-1.43-.29,3.59,3.59,0,0,1-1.11-.8,3.66,3.66,0,0,1-.73-1.18,4.09,4.09,0,0,1,0-2.87,3.49,3.49,0,0,1,.72-1.17,3.39,3.39,0,0,1,2.52-1.07,3.53,3.53,0,0,1,1.42.29,3.75,3.75,0,0,1,1.12.8,3.64,3.64,0,0,1,.72,1.18A4,4,0,0,1,107.45,45Zm1.91,0a5.35,5.35,0,0,0-.4-2.08,5.48,5.48,0,0,0-1.11-1.71,5.37,5.37,0,0,0-1.7-1.15,5.55,5.55,0,0,0-2.19-.42,5.38,5.38,0,0,0-3.91,1.6,5.2,5.2,0,0,0-1.13,1.71,5.58,5.58,0,0,0,0,4.15A5.48,5.48,0,0,0,100,48.8,5.42,5.42,0,0,0,101.74,50a5.55,5.55,0,0,0,2.19.42,5.33,5.33,0,0,0,3.9-1.6A5.1,5.1,0,0,0,109,47.06,5.34,5.34,0,0,0,109.36,45Z"/>
      <path id="Fill-7" class="cls-1" d="M116.93,42.57a1.1,1.1,0,0,1,.45-.88,1.89,1.89,0,0,1,1.24-.36,3.87,3.87,0,0,1,1.4.27,6.42,6.42,0,0,1,1.4.79l1-1.37a5.92,5.92,0,0,0-1.7-1,6,6,0,0,0-2-.33,4.53,4.53,0,0,0-1.41.21,3.31,3.31,0,0,0-1.11.61,2.82,2.82,0,0,0-.72,1,2.77,2.77,0,0,0-.27,1.23,3,3,0,0,0,.23,1.23,2.45,2.45,0,0,0,.67.86,3.69,3.69,0,0,0,1.08.59,12.49,12.49,0,0,0,1.47.43c.48.12.87.23,1.18.34a3.35,3.35,0,0,1,.71.35,1,1,0,0,1,.35.41,1.27,1.27,0,0,1,.1.5,1.13,1.13,0,0,1-.5,1,2.21,2.21,0,0,1-1.33.36,4.19,4.19,0,0,1-1.74-.35,6.42,6.42,0,0,1-1.52-1l-1.09,1.3a6.23,6.23,0,0,0,2,1.25,6.48,6.48,0,0,0,2.28.41,5,5,0,0,0,1.49-.21,3.29,3.29,0,0,0,1.16-.61,2.9,2.9,0,0,0,.76-1,3.27,3.27,0,0,0,.27-1.32,2.81,2.81,0,0,0-.22-1.13,2.33,2.33,0,0,0-.63-.84,3.38,3.38,0,0,0-1-.62,11.68,11.68,0,0,0-1.44-.46,11.61,11.61,0,0,1-1.22-.34,3.2,3.2,0,0,1-.76-.35,1.1,1.1,0,0,1-.37-.42,1.19,1.19,0,0,1-.11-.53"/>
      <path id="Fill-8" class="cls-2" d="M59.14,41.86,54.2,46.8c-.06-.13-.12-.26-.17-.39a4,4,0,0,1,0-2.85,3.49,3.49,0,0,1,.72-1.17,3.24,3.24,0,0,1,1.1-.78,3.45,3.45,0,0,1,1.41-.29,3.63,3.63,0,0,1,1.88.54Zm-.44,6.53a3.42,3.42,0,0,1-1.41.29,3.38,3.38,0,0,1-1.42-.3,4,4,0,0,1-.46-.24l4.94-4.94a3.29,3.29,0,0,1,.17.39,4,4,0,0,1,0,2.85,3.63,3.63,0,0,1-.71,1.17A3.38,3.38,0,0,1,58.7,48.39Zm.75,1.53a5.55,5.55,0,0,0,1.72-1.16,5.18,5.18,0,0,0,1.12-1.71,5.53,5.53,0,0,0,0-4.13,5.49,5.49,0,0,0-.58-1.07l3.21-3.21-1.28-1.27-3.22,3.21a6.47,6.47,0,0,0-.94-.51,5.55,5.55,0,0,0-2.19-.42,5.38,5.38,0,0,0-3.9,1.59A5.2,5.2,0,0,0,52.26,43a5.53,5.53,0,0,0,0,4.13,5.49,5.49,0,0,0,.58,1.07l-3.21,3.21,1.28,1.27,3.22-3.21a6.47,6.47,0,0,0,.94.51,5.55,5.55,0,0,0,2.19.42A5.38,5.38,0,0,0,59.45,49.92Z"/>
    </g>
  </g>
</svg>
