<svg id="Layer_1" data-name="Layer 1" xmlns="http://www.w3.org/2000/svg" width="160" height="90" viewBox="0 0 160 90">
  <defs>
    <style>
      .cls-1 {
        fill: #fff;
      }
    </style>
  </defs>
  <g>
    <polygon class="cls-1" points="38.06 43.48 41.77 39.76 45.48 43.48 47.64 41.32 41.77 35.44 35.9 41.31 38.06 43.48"/>
    <rect class="cls-1" x="32.84" y="43.47" width="3.05" height="3.05" transform="translate(-21.75 37.48) rotate(-45)"/>
    <polygon class="cls-1" points="38.06 46.52 41.77 50.24 45.48 46.52 47.65 48.68 47.64 48.68 41.77 54.56 35.9 48.69 35.89 48.68 38.06 46.52"/>
    <rect class="cls-1" x="47.64" y="43.47" width="3.05" height="3.05" transform="translate(-17.42 47.95) rotate(-45)"/>
    <polygon class="cls-1" points="43.96 45 43.96 45 41.77 42.81 40.15 44.43 40.15 44.43 39.96 44.61 39.58 45 39.58 45 39.58 45 39.58 45 41.77 47.19 43.96 45 43.96 45 43.96 45"/>
    <path class="cls-1" d="M54.7,40.07h4.69A3.59,3.59,0,0,1,62,41a2.37,2.37,0,0,1,.69,1.73v0a2.27,2.27,0,0,1-.11.77,2.36,2.36,0,0,1-.28.6,2.11,2.11,0,0,1-.42.47,2.89,2.89,0,0,1-.51.35,3.3,3.3,0,0,1,1.38.91,2.29,2.29,0,0,1,.51,1.58v0A2.64,2.64,0,0,1,63,48.65a2.45,2.45,0,0,1-.77.87,3.66,3.66,0,0,1-1.2.52,6.69,6.69,0,0,1-1.55.17H54.7Zm4.22,4.1a2.33,2.33,0,0,0,1.18-.25.87.87,0,0,0,.43-.82v0a.87.87,0,0,0-.38-.77A1.83,1.83,0,0,0,59.07,42h-2.2v2.14Zm.6,4.09A2.14,2.14,0,0,0,60.68,48a.92.92,0,0,0,.42-.83v0a1,1,0,0,0-.4-.81A2.17,2.17,0,0,0,59.44,46H56.87v2.23Z"/>
    <path class="cls-1" d="M66.09,40.07h2.24V50.21H66.09Z"/>
    <path class="cls-1" d="M71.7,40.07h2.06l4.75,6.25V40.07h2.2V50.21h-1.9L73.9,43.77v6.44H71.7Z"/>
    <path class="cls-1" d="M87.46,40h2.06l4.34,10.21H91.53l-.93-2.27H86.32l-.93,2.27H83.12Zm2.35,6-1.35-3.29L87.11,46Z"/>
    <path class="cls-1" d="M96.27,40.07h2.06l4.75,6.25V40.07h2.2V50.21h-1.9l-4.91-6.44v6.44h-2.2Z"/>
    <path class="cls-1" d="M113.3,50.38a5.27,5.27,0,0,1-2.07-.4,5,5,0,0,1-1.65-1.11,5.07,5.07,0,0,1-1.08-1.66,5.12,5.12,0,0,1-.4-2v0a5.11,5.11,0,0,1,.4-2,5.33,5.33,0,0,1,1.08-1.67,5,5,0,0,1,1.67-1.13,5.48,5.48,0,0,1,2.14-.41,6.61,6.61,0,0,1,1.3.12,5.27,5.27,0,0,1,1.06.31,4.46,4.46,0,0,1,.88.5,6.51,6.51,0,0,1,.76.63L116,43.1a5.29,5.29,0,0,0-1.21-.84,3.11,3.11,0,0,0-1.38-.3,2.86,2.86,0,0,0-1.18.24,2.8,2.8,0,0,0-.94.68,3.32,3.32,0,0,0-.61,1,3.51,3.51,0,0,0-.21,1.22v0a3.53,3.53,0,0,0,.21,1.23,3.43,3.43,0,0,0,.6,1,2.73,2.73,0,0,0,.93.68,2.78,2.78,0,0,0,1.2.26,3.12,3.12,0,0,0,1.46-.32,5.42,5.42,0,0,0,1.2-.87l1.42,1.43a7.17,7.17,0,0,1-.81.76,5.06,5.06,0,0,1-.92.57,4.65,4.65,0,0,1-1.09.36A6.81,6.81,0,0,1,113.3,50.38Z"/>
    <path class="cls-1" d="M120.08,40.07h7.64v2h-5.44v2h4.78v2h-4.78v2.13h5.51v2h-7.71Z"/>
  </g>
</svg>
