<svg width="89" height="85" viewBox="0 0 89 85" fill="none" xmlns="http://www.w3.org/2000/svg">
<path d="M5.92896 82.536C6.49053 81.1804 5.84674 79.6263 4.49103 79.0648C3.13532 78.5033 1.58106 79.147 1.01949 80.5026C0.457925 81.8581 1.10171 83.4122 2.45742 83.9737C3.81313 84.5352 5.36739 83.8915 5.92896 82.536Z" fill="#B4B9BB" fill-opacity="0.25"/>
<path d="M22.1961 82.5457C22.7576 81.1901 22.1138 79.6361 20.7581 79.0745C19.4024 78.513 17.8481 79.1568 17.2866 80.5123C16.725 81.8679 17.3688 83.422 18.7245 83.9835C20.0802 84.545 21.6345 83.9013 22.1961 82.5457Z" fill="#B4B9BB" fill-opacity="0.25"/>
<path d="M38.4763 82.5213C39.0379 81.1657 38.3941 79.6116 37.0384 79.0501C35.6827 78.4886 34.1284 79.1323 33.5669 80.4879C33.0053 81.8435 33.6491 83.3976 35.0048 83.9591C36.3605 84.5206 37.9148 83.8769 38.4763 82.5213Z" fill="#B4B9BB" fill-opacity="0.25"/>
<path d="M54.7434 82.5316C55.305 81.176 54.6612 79.6219 53.3055 79.0604C51.9498 78.4989 50.3955 79.1426 49.8339 80.4982C49.2724 81.8537 49.9162 83.4078 51.2719 83.9693C52.6276 84.5308 54.1819 83.8871 54.7434 82.5316Z" fill="#B4B9BB" fill-opacity="0.25"/>
<path d="M71.0105 82.5399C71.5721 81.1843 70.9283 79.6302 69.5726 79.0687C68.2169 78.5072 66.6626 79.1509 66.101 80.5065C65.5395 81.862 66.1833 83.4161 67.539 83.9776C68.8947 84.5391 70.449 83.8954 71.0105 82.5399Z" fill="#B4B9BB" fill-opacity="0.25"/>
<path d="M87.291 82.5159C87.8526 81.1604 87.2088 79.6063 85.8531 79.0448C84.4974 78.4833 82.9431 79.127 82.3815 80.4825C81.82 81.8381 82.4638 83.3922 83.8195 83.9537C85.1752 84.5152 86.7294 83.8715 87.291 82.5159Z" fill="#B4B9BB" fill-opacity="0.25"/>
<path d="M3.89874 68.4442C5.34719 68.2091 6.33083 66.8445 6.09575 65.3962C5.86068 63.9479 4.49591 62.9644 3.04746 63.1994C1.59901 63.4345 0.61537 64.7991 0.850445 66.2474C1.08552 67.6957 2.45029 68.6792 3.89874 68.4442Z" fill="#B4B9BB" fill-opacity="0.25"/>
<path d="M20.1597 68.4446C21.6082 68.2096 22.5918 66.845 22.3567 65.3967C22.1217 63.9484 20.7569 62.9648 19.3084 63.1999C17.86 63.4349 16.8764 64.7996 17.1114 66.2479C17.3465 67.6962 18.7113 68.6797 20.1597 68.4446Z" fill="#B4B9BB" fill-opacity="0.25"/>
<path d="M36.4551 68.4402C37.9036 68.2052 38.8872 66.8406 38.6521 65.3923C38.4171 63.944 37.0523 62.9604 35.6039 63.1955C34.1554 63.4305 33.1718 64.7952 33.4068 66.2435C33.6419 67.6918 35.0067 68.6753 36.4551 68.4402Z" fill="#B4B9BB" fill-opacity="0.25"/>
<path d="M52.7161 68.4417C54.1646 68.2067 55.1482 66.842 54.9131 65.3937C54.6781 63.9454 53.3133 62.9619 51.8648 63.197C50.4164 63.432 49.4328 64.7966 49.6678 66.2449C49.9029 67.6932 51.2677 68.6768 52.7161 68.4417Z" fill="#B4B9BB" fill-opacity="0.25"/>
<path d="M68.9764 68.4427C70.4248 68.2076 71.4085 66.843 71.1734 65.3947C70.9383 63.9464 69.5735 62.9629 68.1251 63.1979C66.6766 63.433 65.693 64.7976 65.9281 66.2459C66.1632 67.6942 67.5279 68.6777 68.9764 68.4427Z" fill="#B4B9BB" fill-opacity="0.25"/>
<path d="M85.272 68.4388C86.7205 68.2037 87.7041 66.8391 87.469 65.3908C87.234 63.9425 85.8692 62.959 84.4207 63.194C82.9723 63.4291 81.9887 64.7937 82.2237 66.242C82.4588 67.6903 83.8236 68.6738 85.272 68.4388Z" fill="#B4B9BB" fill-opacity="0.25"/>
<path d="M3.47236 52.7845C4.93974 52.7845 6.12928 51.5951 6.12928 50.1278C6.12928 48.6606 4.93974 47.4712 3.47236 47.4712C2.00498 47.4712 0.81543 48.6606 0.81543 50.1278C0.81543 51.5951 2.00498 52.7845 3.47236 52.7845Z" fill="#B4B9BB" fill-opacity="0.25"/>
<path d="M19.7326 52.7845C21.2 52.7845 22.3895 51.5951 22.3895 50.1278C22.3895 48.6606 21.2 47.4712 19.7326 47.4712C18.2652 47.4712 17.0757 48.6606 17.0757 50.1278C17.0757 51.5951 18.2652 52.7845 19.7326 52.7845Z" fill="#B4B9BB" fill-opacity="0.25"/>
<path d="M36.0288 52.7845C37.4961 52.7845 38.6857 51.5951 38.6857 50.1278C38.6857 48.6606 37.4961 47.4712 36.0288 47.4712C34.5614 47.4712 33.3718 48.6606 33.3718 50.1278C33.3718 51.5951 34.5614 52.7845 36.0288 52.7845Z" fill="#B4B9BB" fill-opacity="0.25"/>
<path d="M52.289 52.7845C53.7564 52.7845 54.9459 51.5951 54.9459 50.1278C54.9459 48.6606 53.7564 47.4712 52.289 47.4712C50.8216 47.4712 49.6321 48.6606 49.6321 50.1278C49.6321 51.5951 50.8216 52.7845 52.289 52.7845Z" fill="#B4B9BB" fill-opacity="0.25"/>
<path d="M68.5493 52.7845C70.0166 52.7845 71.2062 51.5951 71.2062 50.1278C71.2062 48.6606 70.0166 47.4712 68.5493 47.4712C67.0819 47.4712 65.8923 48.6606 65.8923 50.1278C65.8923 51.5951 67.0819 52.7845 68.5493 52.7845Z" fill="#B4B9BB" fill-opacity="0.25"/>
<path d="M84.8452 52.7845C86.3125 52.7845 87.5021 51.5951 87.5021 50.1278C87.5021 48.6606 86.3125 47.4712 84.8452 47.4712C83.3778 47.4712 82.1882 48.6606 82.1882 50.1278C82.1882 51.5951 83.3778 52.7845 84.8452 52.7845Z" fill="#B4B9BB" fill-opacity="0.25"/>
<path d="M38.4744 35.4461C39.0359 34.0905 38.3922 32.5365 37.0364 31.9749C35.6807 31.4134 34.1265 32.0572 33.5649 33.4127C33.0033 34.7683 33.6471 36.3224 35.0028 36.8839C36.3585 37.4454 37.9128 36.8017 38.4744 35.4461Z" fill="#B4B9BB" fill-opacity="0.25"/>
<path d="M54.7415 35.4549C55.303 34.0993 54.6592 32.5452 53.3035 31.9837C51.9478 31.4222 50.3936 32.0659 49.832 33.4215C49.2704 34.7771 49.9142 36.3312 51.2699 36.8927C52.6256 37.4542 54.1799 36.8105 54.7415 35.4549Z" fill="#B4B9BB" fill-opacity="0.25"/>
<path d="M71.0088 35.4642C71.5704 34.1086 70.9266 32.5545 69.5709 31.993C68.2152 31.4315 66.6609 32.0752 66.0993 33.4308C65.5378 34.7864 66.1815 36.3404 67.5373 36.9019C68.893 37.4635 70.4472 36.8197 71.0088 35.4642Z" fill="#B4B9BB" fill-opacity="0.25"/>
<path d="M87.2888 35.4403C87.8504 34.0847 87.2066 32.5306 85.8509 31.9691C84.4952 31.4076 82.9409 32.0513 82.3794 33.4069C81.8178 34.7624 82.4616 36.3165 83.8173 36.878C85.173 37.4395 86.7273 36.7958 87.2888 35.4403Z" fill="#B4B9BB" fill-opacity="0.25"/>
<path d="M38.4739 19.7542C39.0354 18.3986 38.3917 16.8445 37.036 16.283C35.6802 15.7215 34.126 16.3653 33.5644 17.7208C33.0028 19.0764 33.6466 20.6305 35.0023 21.192C36.3581 21.7535 37.9123 21.1098 38.4739 19.7542Z" fill="#B4B9BB" fill-opacity="0.25"/>
<path d="M54.741 19.7635C55.3025 18.4079 54.6587 16.8538 53.303 16.2923C51.9473 15.7308 50.3931 16.3745 49.8315 17.7301C49.2699 19.0857 49.9137 20.6398 51.2694 21.2013C52.6251 21.7628 54.1794 21.1191 54.741 19.7635Z" fill="#B4B9BB" fill-opacity="0.25"/>
<path d="M71.0078 19.7718C71.5694 18.4162 70.9256 16.8621 69.5699 16.3006C68.2142 15.7391 66.6599 16.3828 66.0983 17.7384C65.5368 19.094 66.1806 20.6481 67.5363 21.2096C68.892 21.7711 70.4462 21.1274 71.0078 19.7718Z" fill="#B4B9BB" fill-opacity="0.25"/>
<path d="M87.2883 19.7484C87.8499 18.3928 87.2061 16.8387 85.8504 16.2772C84.4947 15.7157 82.9404 16.3594 82.3789 17.715C81.8173 19.0705 82.4611 20.6246 83.8168 21.1861C85.1725 21.7476 86.7268 21.1039 87.2883 19.7484Z" fill="#B4B9BB" fill-opacity="0.25"/>
<path d="M36.4539 5.67169C37.9024 5.43664 38.886 4.07202 38.6509 2.62372C38.4159 1.17543 37.0511 0.191895 35.6026 0.426945C34.1542 0.661994 33.1705 2.02662 33.4056 3.47491C33.6407 4.92321 35.0055 5.90674 36.4539 5.67169Z" fill="#B4B9BB" fill-opacity="0.25"/>
<path d="M22.1941 35.4695C22.7557 34.114 22.1119 32.5599 20.7562 31.9984C19.4005 31.4369 17.8462 32.0806 17.2846 33.4362C16.7231 34.7917 17.3668 36.3458 18.7226 36.9073C20.0783 37.4688 21.6325 36.8251 22.1941 35.4695Z" fill="#B4B9BB" fill-opacity="0.25"/>
<path d="M22.1934 19.7781C22.7549 18.4226 22.1111 16.8685 20.7554 16.307C19.3997 15.7455 17.8455 16.3892 17.2839 17.7447C16.7223 19.1003 17.3661 20.6544 18.7218 21.2159C20.0775 21.7774 21.6318 21.1337 22.1934 19.7781Z" fill="#B4B9BB" fill-opacity="0.25"/>
<path d="M20.158 5.67657C21.6065 5.44152 22.5901 4.0769 22.355 2.62861C22.1199 1.18031 20.7552 0.196778 19.3067 0.431827C17.8583 0.666877 16.8746 2.0315 17.1097 3.4798C17.3448 4.92809 18.7096 5.91162 20.158 5.67657Z" fill="#B4B9BB" fill-opacity="0.25"/>
<path d="M5.92701 35.4603C6.48857 34.1047 5.84479 32.5506 4.48908 31.9891C3.13337 31.4276 1.5791 32.0713 1.01754 33.4269C0.455972 34.7824 1.09975 36.3365 2.45547 36.898C3.81118 37.4596 5.36544 36.8158 5.92701 35.4603Z" fill="#B4B9BB" fill-opacity="0.25"/>
<path d="M5.92628 19.7689C6.48784 18.4133 5.84406 16.8592 4.48835 16.2977C3.13263 15.7362 1.57837 16.3799 1.01681 17.7355C0.45524 19.091 1.09902 20.6451 2.45474 21.2066C3.81045 21.7681 5.36471 21.1244 5.92628 19.7689Z" fill="#B4B9BB" fill-opacity="0.25"/>
<path d="M3.89752 5.67462C5.34597 5.43957 6.3296 4.07495 6.09453 2.62665C5.85945 1.17836 4.49469 0.194825 3.04624 0.429874C1.59779 0.664924 0.614149 2.02955 0.849224 3.47784C1.0843 4.92614 2.44906 5.90967 3.89752 5.67462Z" fill="#B4B9BB" fill-opacity="0.25"/>
<path d="M52.7144 5.67364C54.1629 5.4386 55.1465 4.07397 54.9114 2.62568C54.6763 1.17738 53.3116 0.193849 51.8631 0.428898C50.4147 0.663947 49.431 2.02857 49.6661 3.47687C49.9012 4.92516 51.266 5.90869 52.7144 5.67364Z" fill="#B4B9BB" fill-opacity="0.25"/>
<path d="M68.9754 5.67462C70.4239 5.43957 71.4075 4.07495 71.1724 2.62665C70.9374 1.17836 69.5726 0.194825 68.1241 0.429874C66.6757 0.664924 65.692 2.02955 65.9271 3.47784C66.1622 4.92614 67.527 5.90967 68.9754 5.67462Z" fill="#B4B9BB" fill-opacity="0.25"/>
<path d="M85.2708 5.67023C86.7193 5.43518 87.7029 4.07056 87.4678 2.62226C87.2328 1.17396 85.868 0.190431 84.4195 0.42548C82.9711 0.660529 81.9874 2.02515 82.2225 3.47345C82.4576 4.92174 83.8224 5.90528 85.2708 5.67023Z" fill="#B4B9BB" fill-opacity="0.25"/>
</svg>
