<svg id="Layer_1" data-name="Layer 1" xmlns="http://www.w3.org/2000/svg" xmlns:xlink="http://www.w3.org/1999/xlink" width="160" height="90" viewBox="0 0 160 90">
  <defs>
    <style>
      .cls-1 {
        fill: #fff;
      }

      .cls-2 {
        clip-path: url(#clip-path);
      }
    </style>
    <clipPath id="clip-path">
      <path class="cls-1" d="M54.87,36.41a3.66,3.66,0,0,0-1.81,3.15,4.19,4.19,0,0,0,.6,1.95,1.37,1.37,0,0,1-.53,2,1.44,1.44,0,0,1-2-.54,5.94,5.94,0,0,0-1.48-1.48,3.51,3.51,0,0,0-3.62,0,3.65,3.65,0,0,0,0,6.31,3.51,3.51,0,0,0,3.62,0,3.63,3.63,0,0,0,1.41-1.47,1.38,1.38,0,0,1,2-.54,1.5,1.5,0,0,1,.54,1.94,4,4,0,0,0-.54,2,3.65,3.65,0,0,0,1.81,3.15,3.51,3.51,0,0,0,3.62,0,3.64,3.64,0,0,0,0-6.3,4,4,0,0,0-2-.47,1.36,1.36,0,0,1-1.41-1.41,1.38,1.38,0,0,1,1.41-1.41,4.16,4.16,0,0,0,2-.47,3.64,3.64,0,0,0,0-6.31,3.72,3.72,0,0,0-3.62,0"/>
    </clipPath>
  </defs>
  <g>
    <path class="cls-1" d="M70.3,42.52a3.47,3.47,0,0,0-1-.14,2.43,2.43,0,0,0-2.48,2.15v5.71H64.06V40.1h2.62v1a3.86,3.86,0,0,1,2.95-1.21c.4,0,.6.07.94.07l-.27,2.55Zm3.09-7.79a1.75,1.75,0,1,1-1.88,1.75,1.85,1.85,0,0,1,1.88-1.75m1.34,15.51H72V40.1h2.75Zm8-10.34a4.86,4.86,0,0,0-3,1V40.1H77.15V55.27H79.9V49.5a4.42,4.42,0,0,0,2.75.94,5,5,0,0,0,3.82-1.75,5.34,5.34,0,0,0,1.28-3.55,5.07,5.07,0,0,0-5-5.24M82.45,48a2.82,2.82,0,1,1,0-5.63,2.82,2.82,0,0,1,0,5.63m19.12-12.61h2.75v14.9h-2.75ZM115.4,48.62a5.7,5.7,0,0,1-4.16,1.82,5.07,5.07,0,0,1-5.3-5.3,5,5,0,0,1,5-5.3A4.92,4.92,0,0,1,115.73,45a3.17,3.17,0,0,1-.07.81h-7.11a2.66,2.66,0,0,0,2.75,2.41,3.83,3.83,0,0,0,2.55-1.13Zm-2.56-4.76a2,2,0,0,0-2-1.81,2.13,2.13,0,0,0-2.15,1.81ZM95,39.9a4.89,4.89,0,0,0-3,1V40.1H89.43V55.27h2.75V49.5a4.42,4.42,0,0,0,2.75.94,5,5,0,0,0,3.82-1.75A5.34,5.34,0,0,0,100,45.14a5.16,5.16,0,0,0-5-5.24M94.66,48a2.82,2.82,0,0,1,0-5.63,2.82,2.82,0,0,1,0,5.63"/>
    <g>
      <path class="cls-1" d="M54.87,36.41a3.66,3.66,0,0,0-1.81,3.15,4.19,4.19,0,0,0,.6,1.95,1.37,1.37,0,0,1-.53,2,1.44,1.44,0,0,1-2-.54,5.94,5.94,0,0,0-1.48-1.48,3.51,3.51,0,0,0-3.62,0,3.65,3.65,0,0,0,0,6.31,3.51,3.51,0,0,0,3.62,0,3.63,3.63,0,0,0,1.41-1.47,1.38,1.38,0,0,1,2-.54,1.5,1.5,0,0,1,.54,1.94,4,4,0,0,0-.54,2,3.65,3.65,0,0,0,1.81,3.15,3.51,3.51,0,0,0,3.62,0,3.64,3.64,0,0,0,0-6.3,4,4,0,0,0-2-.47,1.36,1.36,0,0,1-1.41-1.41,1.38,1.38,0,0,1,1.41-1.41,4.16,4.16,0,0,0,2-.47,3.64,3.64,0,0,0,0-6.31,3.72,3.72,0,0,0-3.62,0"/>
      <g class="cls-2">
        <path class="cls-1" d="M52.32,27.89,69.09,44.73,52.32,61.51,35.48,44.73Z"/>
      </g>
    </g>
  </g>
</svg>
