<svg id="Layer_1" data-name="Layer 1" xmlns="http://www.w3.org/2000/svg" width="145.59" height="40" viewBox="0 0 145.59 40">
  <defs>
    <style>
      .cls-1 {
        fill: #fff;
      }
    </style>
  </defs>
  <g>
    <polygon class="cls-1" points="15.92 17.95 20.98 12.9 25.98 17.95 28.93 15 20.98 7.04 13.02 15 15.92 17.95"/>
    <rect class="cls-1" x="8.86" y="17.88" width="4.15" height="4.15" transform="translate(-10.91 13.58) rotate(-45)"/>
    <polygon class="cls-1" points="15.92 22.05 20.98 27.1 25.98 22.05 28.93 24.95 28.93 24.95 20.98 32.96 13.02 25 12.97 24.95 15.92 22.05"/>
    <rect class="cls-1" x="28.91" y="17.88" width="4.15" height="4.15" transform="translate(-5.04 27.76) rotate(-45)"/>
    <polygon class="cls-1" points="23.93 20 23.93 20 20.98 17 18.77 19.2 18.77 19.2 18.52 19.45 17.98 20 17.98 20 17.98 20 17.98 20 20.98 22.95 23.93 20 23.93 20"/>
    <path class="cls-1" d="M38.49,13.3h6.35a5.16,5.16,0,0,1,3.55,1.25,3.33,3.33,0,0,1,1,2.35h0A3.81,3.81,0,0,1,49.19,18a2.41,2.41,0,0,1-.4.8,3.44,3.44,0,0,1-.55.65,2.1,2.1,0,0,1-.7.45,4.21,4.21,0,0,1,1.85,1.25,3,3,0,0,1,.7,2.15h0a4,4,0,0,1-.35,1.7,3.45,3.45,0,0,1-1.05,1.2,4.84,4.84,0,0,1-1.65.7,10,10,0,0,1-2.1.25h-6.5V13.3Zm5.7,5.55a3,3,0,0,0,1.6-.35,1.25,1.25,0,0,0,.6-1.1h0a1.26,1.26,0,0,0-.5-1,2.61,2.61,0,0,0-1.45-.45h-3v2.9ZM45,24.4a2.73,2.73,0,0,0,1.55-.35,1.12,1.12,0,0,0,.55-1.1h0a1.33,1.33,0,0,0-.55-1.1,2.94,2.94,0,0,0-1.7-.5h-3.5v3Z"/>
    <path class="cls-1" d="M54,13.3h3V27.05H54Z"/>
    <path class="cls-1" d="M61.55,13.3h2.8l6.46,8.45V13.3h3V27.05H71.26L64.6,18.3v8.75h-3V13.3Z"/>
    <path class="cls-1" d="M82.91,13.2h2.81l5.9,13.85H88.47L87.22,24H81.41l-1.25,3.1h-3.1Zm3.16,8.15L84.21,16.9l-1.85,4.45Z"/>
    <path class="cls-1" d="M94.87,13.3h2.8l6.46,8.45V13.3h3V27.05h-2.55L97.92,18.3v8.75h-3Z"/>
    <path class="cls-1" d="M117.94,27.3a7.1,7.1,0,0,1-5.06-2.05A6,6,0,0,1,111.43,23a7.24,7.24,0,0,1-.55-2.7h0a7,7,0,0,1,.55-2.7,7.56,7.56,0,0,1,1.45-2.25,7,7,0,0,1,2.25-1.55,7.15,7.15,0,0,1,2.91-.55,9.91,9.91,0,0,1,1.75.15c.5.1.95.25,1.45.4a7.46,7.46,0,0,1,1.2.7c.35.25.7.55,1,.85l-1.9,2.1a7.51,7.51,0,0,0-1.65-1.15,4,4,0,0,0-1.85-.4,3.6,3.6,0,0,0-1.61.35,3.82,3.82,0,0,0-1.25.9,4.74,4.74,0,0,0-.85,1.35,4.8,4.8,0,0,0-.3,1.65h0a4.6,4.6,0,0,0,1.1,3,3.62,3.62,0,0,0,1.25.9,3.67,3.67,0,0,0,1.66.35,4.67,4.67,0,0,0,2-.45,6.33,6.33,0,0,0,1.65-1.2l1.9,1.95c-.35.35-.7.7-1.1,1.05a6.38,6.38,0,0,1-1.25.75,6.61,6.61,0,0,1-1.5.5A7.53,7.53,0,0,1,117.94,27.3Z"/>
    <path class="cls-1" d="M127.14,13.3H137.5V16h-7.36v2.7h6.51v2.7h-6.51v2.9h7.46V27H127.14V13.3Z"/>
  </g>
</svg>
