<svg xmlns="http://www.w3.org/2000/svg" width="26.418" height="21.472" viewBox="0 0 26.418 21.472">
  <path id="twitter" d="M26.367,4.8a11.008,11.008,0,0,1-3.11.853,5.457,5.457,0,0,0,2.381-3,11.187,11.187,0,0,1-3.442,1.3,5.414,5.414,0,0,0-9.368,3.7,5.542,5.542,0,0,0,.14,1.237A15.338,15.338,0,0,1,1.805,3.253a5.308,5.308,0,0,0-.733,2.724A5.416,5.416,0,0,0,3.48,10.486a5.4,5.4,0,0,1-2.452-.678v.067a5.419,5.419,0,0,0,4.343,5.313,5.465,5.465,0,0,1-2.435.094A5.434,5.434,0,0,0,8,19.043,10.862,10.862,0,0,1,1.288,21.36,11.494,11.494,0,0,1,0,21.286a15.405,15.405,0,0,0,8.318,2.431A15.3,15.3,0,0,0,23.727,8.323c0-.23,0-.462-.017-.693a10.937,10.937,0,0,0,2.708-2.8Z" transform="translate(0 -2.246)" fill="#fff"/>
</svg>
