<svg width="17" height="17" viewBox="0 0 17 17" fill="none" xmlns="http://www.w3.org/2000/svg">
<path d="M8.49637 16.9927C13.1888 16.9927 16.9927 13.1888 16.9927 8.49637C16.9927 3.80394 13.1888 0 8.49637 0C3.80394 0 0 3.80394 0 8.49637C0 13.1888 3.80394 16.9927 8.49637 16.9927Z" fill="url(#paint0_linear)"/>
<path d="M8.49634 16.3999C12.8614 16.3999 16.4 12.8614 16.4 8.49631C16.4 4.13132 12.8614 0.592773 8.49634 0.592773C4.13132 0.592773 0.592773 4.13132 0.592773 8.49631C0.592773 12.8614 4.13132 16.3999 8.49634 16.3999Z" fill="white"/>
<path d="M3.63 8.34702C3.63 8.34702 4.12 9.06458 5.14374 9.66831C5.14374 9.66831 4.4 3.4121 9.22997 2.31836C7.99623 6.85957 10.8049 8.13707 11.8286 5.73958C13.5349 8.02333 12.2399 10.0183 12.2399 10.0183C12.9399 10.1233 13.5262 9.35327 13.5262 9.35327C13.5349 9.44955 13.5349 9.54576 13.5349 9.64204C13.5349 12.4246 11.2775 14.6733 8.50368 14.6733C5.72998 14.6733 3.47251 12.4157 3.47251 9.64204C3.46375 9.19579 3.52501 8.75827 3.63 8.34702Z" fill="#FF7337"/>
<path d="M13.5262 9.35327C13.5262 9.35327 12.9399 10.1233 12.2399 10.0183C12.2399 10.0183 13.5349 8.02333 11.8286 5.73958C10.8049 8.13707 7.99621 6.85957 9.22995 2.31836C8.96745 2.37961 8.73115 2.44961 8.50366 2.53711V14.6733C11.2862 14.6733 13.5349 12.4157 13.5349 9.64204C13.5349 9.54576 13.5262 9.44955 13.5262 9.35327Z" fill="#DC4425"/>
<path d="M6.29004 12.4683C6.29004 13.6845 7.27878 14.6733 8.49505 14.6733C9.71125 14.6733 10.7 13.6845 10.7 12.4683C10.7 11.812 10.42 11.2258 9.96501 10.8233C9.10752 11.9871 7.89125 10.2195 8.84502 8.94206C8.85375 8.93333 6.29004 9.2571 6.29004 12.4683Z" fill="#FFD13E"/>
<path d="M10.7086 12.4681C10.7086 11.8119 10.4287 11.2256 9.9737 10.8231C9.1162 11.9869 7.89993 10.2194 8.85371 8.94189C8.85371 8.94189 8.71369 8.95944 8.50366 9.02937V14.6819C9.71993 14.6731 10.7086 13.6844 10.7086 12.4681Z" fill="#E9A627"/>
<defs>
<linearGradient id="paint0_linear" x1="0" y1="8.49869" x2="16.9974" y2="8.49869" gradientUnits="userSpaceOnUse">
<stop stop-color="#EF4136"/>
<stop offset="0.2183" stop-color="#F3593E"/>
<stop offset="0.5229" stop-color="#F77447"/>
<stop offset="0.7934" stop-color="#F9844C"/>
<stop offset="1" stop-color="#FA8A4E"/>
</linearGradient>
</defs>
</svg>
