<svg id="Layer_1" data-name="Layer 1" xmlns="http://www.w3.org/2000/svg" width="145.59" height="40" viewBox="0 0 145.59 40">
  <defs>
    <style>
      .cls-1 {
        fill: #fff;
      }
    </style>
  </defs>
  <g id="Group_476" data-name="Group 476">
    <g id="_20160721060814-ENT-logo-white" data-name=" 20160721060814-ENT-logo-white">
      <g id="Group_475" data-name="Group 475">
        <path id="Path_1558" data-name="Path 1558" class="cls-1" d="M10.05,24.41l1.59-.25V9.47L9.86,9.24,10,7.65H21.07l-.28,4.45L18.58,12l-.14-2.79H15v6.62H16.5l.35-1.52,1.54,0V19H16.85l-.37-1.57H15v7h3.46l.33-3,2.32.07.19,4.63H10Z"/>
        <path id="Path_1559" data-name="Path 1559" class="cls-1" d="M22.32,26.07l.06-1.36,1.25-.25V15.19l-1.45-.14V13.67l3.64-.53.28.78v.53A4.35,4.35,0,0,1,29.39,13a3.25,3.25,0,0,1,3.46,3.57v7.89l1.32.25-.07,1.36H29.76V17.24c0-1.27-.46-2-1.61-2a2.69,2.69,0,0,0-1,.18,6,6,0,0,0-.53.6v8.45l1.32.25-.09,1.36H22.32Z"/>
        <path id="Path_1560" data-name="Path 1560" class="cls-1" d="M92,26.07l0-1.36,1.24-.25V15.19l-1.45-.14V13.67l3.65-.53.27.78v.53A4.38,4.38,0,0,1,99,13a3.24,3.24,0,0,1,3.46,3.57v7.89l1.32.25-.07,1.36H99.43V17.24c0-1.27-.46-2-1.61-2a2.69,2.69,0,0,0-1,.18,6,6,0,0,0-.53.6v8.45l1.32.25-.09,1.36H92Z"/>
        <path id="Path_1561" data-name="Path 1561" class="cls-1" d="M41,25.82a6.87,6.87,0,0,1-2.58.44,2.67,2.67,0,0,1-3-3V15.19L34,15l.07-1.61,1.66-.07.71-2.47,2.12-.09v2.65h2.29L40.7,15l-2.1.23v8.12a1,1,0,0,0,.88,1.1H40.9Z"/>
        <path id="Path_1562" data-name="Path 1562" class="cls-1" d="M127.36,26.07l0-1.33,1.18-.28V15.19l-1.38-.14V13.67l3.78-.53.25.9v.3a6.52,6.52,0,0,1,4-1.23l.55.49-.39,3.5L133.27,17l-.21-1.86a3,3,0,0,0-1.34.48v8.83l1.32.28-.1,1.34h-5.58Z"/>
        <path id="Path_1563" data-name="Path 1563" class="cls-1" d="M73.05,26.07l.07-1.33,1.17-.28V15.19l-1.38-.14V13.67l3.78-.53L77,14v.3a6.49,6.49,0,0,1,3.94-1.23l.56.49L81,17.1,78.94,17l-.21-1.86a3,3,0,0,0-1.34.48v8.83l1.32.28-.1,1.34H73.05Z"/>
        <path id="Path_1564" data-name="Path 1564" class="cls-1" d="M42,26.07,42,24.74l1.18-.28V15.19l-1.38-.14V13.67l3.78-.53.25.9v.3a6.56,6.56,0,0,1,3.92-1.23l.56.49-.4,3.5L47.87,17l-.2-1.86a2.93,2.93,0,0,0-1.34.48v8.83l1.31.28-.09,1.34H42Z"/>
        <path id="Path_1565" data-name="Path 1565" class="cls-1" d="M53.91,20.42c0,2.22,1,3.93,2.88,3.93a5.91,5.91,0,0,0,2.7-.65L60,24.92A6.4,6.4,0,0,1,56,26.26c-3.37,0-5.3-2.91-5.3-6.64,0-3.19,1.4-6.67,5.26-6.67,3.36,0,4.63,3.11,4.63,6.57l-.32.83Zm0-1.47,3.88-.19c-.07-1.54-.39-4-1.92-4a2.28,2.28,0,0,0-1.08.3A9.32,9.32,0,0,0,53.86,19Z"/>
        <path id="Path_1566" data-name="Path 1566" class="cls-1" d="M107.5,20.42c0,2.22,1,3.93,2.89,3.93a5.87,5.87,0,0,0,2.69-.65l.53,1.22a6.39,6.39,0,0,1-4,1.34c-3.37,0-5.31-2.91-5.31-6.64,0-3.19,1.41-6.67,5.26-6.67,3.37,0,4.63,3.11,4.63,6.57l-.32.83Zm0-1.47,3.87-.19c-.07-1.54-.39-4-1.91-4a2.32,2.32,0,0,0-1.09.3A9.31,9.31,0,0,0,107.46,19Z"/>
        <path id="Path_1567" data-name="Path 1567" class="cls-1" d="M85,20.42c0,2.22,1,3.93,2.88,3.93a5.91,5.91,0,0,0,2.7-.65l.53,1.22a6.42,6.42,0,0,1-4.06,1.34c-3.37,0-5.31-2.91-5.31-6.64C81.74,16.43,83.15,13,87,13c3.37,0,4.64,3.11,4.64,6.57l-.33.83ZM85,19l3.87-.19c-.07-1.54-.39-4-1.91-4a2.25,2.25,0,0,0-1.08.3A9,9,0,0,0,85,19Z"/>
        <path id="Path_1568" data-name="Path 1568" class="cls-1" d="M122.86,26.07l-.32-1.1a4,4,0,0,1-3,1.29,3.42,3.42,0,0,1-3.76-3.74V14.86l-1.45-.13V13.51l4.2-.49.32,1.11v8c0,1.4.58,2.14,1.71,2.14a3.43,3.43,0,0,0,1.1-.18,4.46,4.46,0,0,0,.58-.72V14.86l-1.5-.13V13.51L125,13l.32,1.11V24.46l1.31.25-.16,1.36Z"/>
      </g>
      <path id="Path_1569" data-name="Path 1569" class="cls-1" d="M66.85,24.41a3.24,3.24,0,0,1-1.62-.34V15.93a9.12,9.12,0,0,1,.6-.76A3.25,3.25,0,0,1,67,15c1.73,0,2,1.76,2,4.89a10.16,10.16,0,0,1-.57,4.2A3.64,3.64,0,0,1,66.85,24.41ZM72,19.32c0-3.9-1.15-6.35-4-6.35a3.84,3.84,0,0,0-3.19,1.57V14.1L64.47,13l-3.76.53v1.34l1.46.18V30.78L60.92,31l-.07,1.31h5.56L66.5,31l-1.31-.26v-5a4.38,4.38,0,0,0,2.07.49c4.71,0,4.75-4.78,4.75-7Z"/>
    </g>
  </g>
</svg>
