<?xml version="1.0" encoding="utf-8"?>
<!-- Generator: Adobe Illustrator 24.2.3, SVG Export Plug-In . SVG Version: 6.00 Build 0)  -->
<svg version="1.1" id="Layer_1" xmlns="http://www.w3.org/2000/svg" xmlns:xlink="http://www.w3.org/1999/xlink" x="0px" y="0px"
	 viewBox="0 0 53.4 58" style="enable-background:new 0 0 53.4 58;" xml:space="preserve">
<style type="text/css">
	.st0{fill-rule:evenodd;clip-rule:evenodd;fill:#FFFFFF;}
</style>
<desc>Created with Sketch.</desc>
<g id="Purple-else">
	<g id="Desktop" transform="translate(-307.000000, -44.000000)">
		<path id="DeFi-Pulse" class="st0" d="M350.1,59.2c5,5,7.3,10.6,7.3,17.9c0,14-10.2,23.8-24.8,23.8h-14.3l-8.3-8.3V45.1h14.6
			c7.8,0,14.4,2.8,18.9,7.5L350.1,59.2z M317.9,52.6h-0.1v1.7l7.1,7.1v-1.7L317.9,52.6z M326.1,59.4l-6.8-6.8h-1l6.8,6.8H326.1z
			 M328.5,59.4l-6.8-6.8h-1.9l6.8,6.8H328.5z M324.7,52.6h-2.5l6.8,6.8h2.5L324.7,52.6z M333.9,59.4l-6.7-6.7
			c-0.7-0.1-1.4-0.1-2.1-0.2l6.8,6.8h0.7C333.1,59.4,333.5,59.4,333.9,59.4z M336,59.6l-6.5-6.5c-0.6-0.1-1.2-0.2-1.8-0.3l6.6,6.6
			C335,59.5,335.5,59.6,336,59.6z M338,60.1l-6.3-6.3c-0.5-0.2-1-0.3-1.5-0.5l6.5,6.5C337.1,59.9,337.5,60,338,60.1z M338.7,60.3
			c0.4,0.2,0.9,0.4,1.3,0.6l-6.2-6.2c-0.4-0.2-0.9-0.5-1.4-0.7L338.7,60.3z M317.8,67.5l1.2,1.2l-0.3,0.3l-0.9-0.9v17.5h7.1V61.8
			l-7.1-7v1.6l6.8,6.7l-0.3,0.2l-6.5-6.5v1.7l5.6,5.7l-0.2,0.3l-5.4-5.4v1.7l4.5,4.5l-0.2,0.3l-4.3-4.3V63l3.4,3.4l-0.2,0.3
			l-3.2-3.2v1.7l2.3,2.3l-0.3,0.3l-2-2.1V67.5z M339.5,59.9c-1.1-1.8-2.6-3.3-4.4-4.4L339.5,59.9z M349.4,59.9l-2.7-2.8
			c1.8,3.4,3,7.6,3,11.9c0,0.5,0,0.9,0,1.4l6.8,6.9v-0.2C356.5,70.1,354.2,64.8,349.4,59.9z M325.8,85.5c9.7-0.5,16-6.9,16-16.5
			c0-2.5-0.4-4.7-1.2-6.8c-2-1.4-4.4-2-8-2h-6.8V85.5z M348.3,77.6l7.1,7.1c0.7-2.2,1.1-4.5,1.1-7l-6.9-6.9
			C349.5,73.3,349,75.5,348.3,77.6z M355.2,85.1l-7.1-7.1c-0.6,1.7-1.4,3.2-2.4,4.6l7.2,7.2C353.9,88.4,354.7,86.8,355.2,85.1z
			 M350,93.4c1-1,1.9-2.1,2.7-3.3l-7.2-7.2c-0.8,1.2-1.8,2.3-2.8,3.2L350,93.4z M339.5,88.7l7.3,7.3c1-0.7,2-1.5,2.9-2.3l-7.3-7.3
			C341.6,87.2,340.6,88,339.5,88.7z M336.3,90.4l7.3,7.3c1-0.5,2-1,2.9-1.6l-7.3-7.3C338.3,89.5,337.4,90,336.3,90.4z M333.2,91.6
			l7.3,7.3c1-0.3,1.9-0.6,2.8-1l-7.3-7.3C335.1,91,334.2,91.3,333.2,91.6z M330.2,92.3l7.3,7.3c0.9-0.2,1.8-0.4,2.7-0.6l-7.3-7.3
			C332,92,331.1,92.2,330.2,92.3z M329.7,92.4c-0.8,0.2-1.6,0.3-2.5,0.3l7.2,7.2c0.9,0,1.7-0.1,2.5-0.2L329.7,92.4z M331.7,100h1
			c0.5,0,0.9,0,1.3,0l-7.2-7.2c-0.7,0-1.5,0.1-2.2,0.1h0L331.7,100z M311.6,92.8l7.1,7.1h0.5l-7.1-7.1H311.6z M312.6,92.8l7.1,7.1
			h0.6l-7.1-7.1H312.6z M313.6,92.8l7.1,7.1h0.8l-7.1-7.1H313.6z M314.9,92.8l7.1,7.1h1l-7.1-7.1H314.9z M316.3,92.8l7.1,7.1h1.2
			l-7.1-7.1H316.3z M317.9,92.8l7.1,7.1h1.4l-7.1-7.1H317.9z M319.9,92.8l7.1,7.1h1.7l-7.1-7.1H319.9z M322,92.8l7.1,7.1h2l-7.2-7.1
			H322z"/>
	</g>
</g>
</svg>
