<svg id="Layer_1" data-name="Layer 1" xmlns="http://www.w3.org/2000/svg" width="160" height="90" viewBox="0 0 160 90">
  <defs>
    <style>
      .cls-1 {
        fill: #fff;
      }
    </style>
  </defs>
  <g>
    <path class="cls-1" d="M67.85,46.6H65.11c-.23,0-.28,0-.3.26-.07.85-.14,1.69-.22,2.54s-.16,2-.25,3a.38.38,0,0,1-.43.4H62c-.28,0-.4-.11-.38-.4.07-.88.15-1.75.22-2.63l.24-2.66.33-3.8.29-3.39c0-.3,0-.61.08-.91a.37.37,0,0,1,.41-.37h2c.26,0,.39.13.37.39l-.27,3.11-.18,2c0,.2,0,.23.22.23h5.56c.21,0,.25,0,.27-.25l.3-3.51L71.55,39c0-.3.16-.41.45-.41h1.88c.31,0,.42.13.39.44-.12,1.39-.23,2.79-.35,4.18s-.27,3-.41,4.51c-.1,1.12-.19,2.24-.28,3.37,0,.42-.07.86-.11,1.28a.38.38,0,0,1-.42.38H70.76c-.27,0-.39-.12-.36-.4,0-.75.12-1.5.19-2.25s.13-1.52.19-2.28l.09-1c0-.2,0-.24-.22-.24Z"/>
    <path class="cls-1" d="M77.1,42.67H78c.28,0,.41.13.39.41-.07.87-.15,1.73-.22,2.6s-.2,1.94-.25,2.92A3.63,3.63,0,0,0,78,49.78a1.5,1.5,0,0,0,1.75,1.13,1.91,1.91,0,0,0,1.7-1.52,8,8,0,0,0,.27-1.63c.08-1,.18-2.06.27-3.09l.12-1.5c0-.4.13-.5.54-.5h1.65c.34,0,.45.11.42.46-.07.93-.16,1.86-.24,2.8s-.16,2.16-.31,3.24a4.75,4.75,0,0,1-.95,2.37A3.91,3.91,0,0,1,81,52.92a6.7,6.7,0,0,1-3.24-.05,3.09,3.09,0,0,1-2.37-2.65,7.49,7.49,0,0,1,0-1.95l.24-2.68c.07-.86.15-1.71.23-2.57a.35.35,0,0,1,.38-.34Z"/>
    <path class="cls-1" d="M55.35,42.25a3.35,3.35,0,0,1-.8,2.1,14.28,14.28,0,0,1-1.36,1.44,12.11,12.11,0,0,0-2.93,4.79A10.4,10.4,0,0,0,50,51.67c0,.18-.07.19-.2.07a5.26,5.26,0,0,1-.32-7.66c.27-.28.59-.52.86-.8a7.59,7.59,0,0,0,2.19-4.19,8.14,8.14,0,0,0,.09-2c0-.05,0-.12,0-.15s.1,0,.15.06a8.15,8.15,0,0,1,1.52,1.84A7.7,7.7,0,0,1,55.34,42C55.35,42.06,55.34,42.18,55.35,42.25Z"/>
    <path class="cls-1" d="M53.22,53a8.14,8.14,0,0,1-1.69-.26c-.08,0-.15-.05-.12-.15s0-.16.13-.18a.61.61,0,0,0,.57-.49,1.8,1.8,0,0,0,.08-.39,4.26,4.26,0,0,1,1-2.32c.52-.67,1.16-1.24,1.74-1.87a10.15,10.15,0,0,0,2.2-3.53c0-.05,0-.13.09-.14s.1.08.13.13a7.37,7.37,0,0,1,.8,2.28,7.66,7.66,0,0,1,.15,2.08A5.24,5.24,0,0,1,53.22,53Z"/>
    <path class="cls-1" d="M109.61,52.76h-.88c-.28,0-.4-.13-.38-.42.06-.73.13-1.45.19-2.17l.33-3.85c.1-1.08.19-2.17.29-3.25a.38.38,0,0,1,.44-.39h1.78c.29,0,.41.12.39.41-.08,1-.17,1.95-.26,2.93-.12,1.42-.24,2.85-.37,4.27-.06.7-.12,1.4-.19,2.1a.35.35,0,0,1-.4.37Z"/>
    <path class="cls-1" d="M110.59,41.67h-.9c-.26,0-.39-.12-.37-.38,0-.58.09-1.15.15-1.73a.34.34,0,0,1,.37-.33h1.9a.32.32,0,0,1,.33.38c0,.57-.1,1.14-.16,1.7a.35.35,0,0,1-.39.36Z"/>
    <path class="cls-1" d="M106.34,44a3.62,3.62,0,0,0-2.59-1.56,4.72,4.72,0,0,0-3.38.78.18.18,0,0,1-.21,0c-.06,0-.06-.1,0-.17l.21-2.44c.06-.63.11-1.26.16-1.89,0-.24-.09-.37-.31-.37H98.24a.33.33,0,0,0-.35.33c0,.15,0,.31,0,.46l-.33,3.77c-.08,1-.16,2-.25,3L97,49.3c-.09,1-.17,2-.26,3.06,0,.25.1.4.35.4h1.86a.37.37,0,0,0,.4-.35c0-.12,0-.25.06-.4a2.77,2.77,0,0,0,.49.48,2.63,2.63,0,0,0,.57.31,5,5,0,0,0,2.64.22,4.71,4.71,0,0,0,3-1.88,6.32,6.32,0,0,0,1.28-3.35A5.34,5.34,0,0,0,106.34,44Zm-3,6.3a2.51,2.51,0,0,1-2.86.15,2.73,2.73,0,0,1-1.07-1.88,3.57,3.57,0,0,1,.7-2.72,2.6,2.6,0,0,1,2.67-1.1,2,2,0,0,1,1.44,1.11,2.85,2.85,0,0,1,.41,1.56A3.66,3.66,0,0,1,103.38,50.26Z"/>
    <path class="cls-1" d="M95.9,46.06a4.24,4.24,0,0,0-2.47-3.26,5.22,5.22,0,0,0-2.37-.45,5.37,5.37,0,0,0-4.77,2.72,6.07,6.07,0,0,0-.75,4.31,4.26,4.26,0,0,0,1.89,2.91,5,5,0,0,0,2.86.8h.24l.6-.06A5.26,5.26,0,0,0,95,50.55,6.17,6.17,0,0,0,95.9,46.06Zm-3.16,3.43a2.54,2.54,0,0,1-1.53,1.19,2.34,2.34,0,0,1-2.38-.52,2.59,2.59,0,0,1-.75-1.77v-.27a3.68,3.68,0,0,1,1-2.61,2.63,2.63,0,0,1,2.62-.78,2,2,0,0,1,1.43,1.32A3.64,3.64,0,0,1,92.74,49.49Z"/>
  </g>
</svg>
