<svg xmlns="http://www.w3.org/2000/svg" width="22.017" height="21.472" viewBox="0 0 22.017 21.472">
  <path id="git" d="M11.008.3A11.009,11.009,0,0,0,7.527,21.75c.55.1.752-.237.752-.529,0-.261-.009-.954-.014-1.871-3.062.664-3.708-1.477-3.708-1.477a2.918,2.918,0,0,0-1.225-1.61c-1-.683.077-.669.077-.669A2.308,2.308,0,0,1,5.1,16.727a2.346,2.346,0,0,0,3.206.916A2.347,2.347,0,0,1,9,16.17c-2.445-.275-5.014-1.222-5.014-5.44A4.247,4.247,0,0,1,5.118,7.776a3.914,3.914,0,0,1,.1-2.914s.922-.3,3.027,1.128a10.379,10.379,0,0,1,5.5,0c2.092-1.424,3.014-1.128,3.014-1.128a4.022,4.022,0,0,1,.11,2.914A4.264,4.264,0,0,1,18,10.73c0,4.229-2.573,5.16-5.023,5.431a2.636,2.636,0,0,1,.743,2.037c0,1.473-.014,2.657-.014,3.014,0,.289.193.633.757.523A10.995,10.995,0,0,0,11.008.3" transform="translate(0 -0.297)" fill="#fff"/>
</svg>
