<svg id="Layer_1" data-name="Layer 1" xmlns="http://www.w3.org/2000/svg" width="160" height="90" viewBox="0 0 160 90">
  <defs>
    <style>
      .cls-1, .cls-3, .cls-4 {
        fill: #fff;
      }

      .cls-2 {
        opacity: 0.85;
      }

      .cls-3 {
        opacity: 0.9;
        isolation: isolate;
      }

      .cls-4 {
        fill-rule: evenodd;
      }
    </style>
  </defs>
  <g id="Navigation">
    <g id="OKEx-logo-_-Subtitle" data-name="OKEx-logo-&amp;-Subtitle">
      <g id="OKEx-logo">
        <path id="Text" class="cls-1" d="M84.42,45a6.92,6.92,0,0,1-.4,2.38,5.78,5.78,0,0,1-1.17,2A5.48,5.48,0,0,1,81,50.65a6.16,6.16,0,0,1-2.56.49,6.27,6.27,0,0,1-2.55-.49A5.48,5.48,0,0,1,74,49.32a5.56,5.56,0,0,1-1.17-2,7.31,7.31,0,0,1,0-4.77,5.52,5.52,0,0,1,3-3.3,6.11,6.11,0,0,1,2.55-.49,6.49,6.49,0,0,1,2.56.49,5.48,5.48,0,0,1,1.88,1.33,5.82,5.82,0,0,1,1.17,2A7,7,0,0,1,84.42,45Zm-6,4.21A3.31,3.31,0,0,0,80,48.86a3.15,3.15,0,0,0,1.1-.88,3.86,3.86,0,0,0,.66-1.33A6.42,6.42,0,0,0,81.92,45a6.31,6.31,0,0,0-.21-1.67A3.82,3.82,0,0,0,81.05,42a3,3,0,0,0-1.1-.88,3.79,3.79,0,0,0-3,0,3.15,3.15,0,0,0-1.1.88,3.64,3.64,0,0,0-.65,1.34A5.92,5.92,0,0,0,74.93,45a6,6,0,0,0,.22,1.67A3.67,3.67,0,0,0,75.8,48a3,3,0,0,0,1.1.88A3.32,3.32,0,0,0,78.43,49.19ZM86,50.94V39h2.5v5.73L92.64,39h2.9L91.15,44.9l4.69,6h-3.1l-4.25-5.86v5.86ZM96.84,39H104v2H99.36v2.89h4.43v2H99.36V49h4.71v2H96.85V39Zm16.1,0h2.72l-3.92,5.93,4,6H113l-2.58-4.07-2.57,4.07h-2.75l4-6L105.17,39h2.71l2.53,4Z"/>
      </g>
    </g>
  </g>
  <g id="Path-raw" class="cls-2">
    <circle id="Oval" class="cls-3" cx="56.91" cy="37.98" r="5.75"/>
    <circle id="Oval-Copy" class="cls-3" cx="56.91" cy="51.88" r="5.75"/>
    <circle id="Oval-Copy-2" class="cls-3" cx="63.86" cy="44.93" r="5.75"/>
    <circle id="Oval-Copy-3" class="cls-3" cx="49.96" cy="44.93" r="5.75"/>
    <path id="Combined-Shape" class="cls-4" d="M55.55,43.57a5.76,5.76,0,0,1-4.23-4.23A5.76,5.76,0,0,1,55.55,43.57Z"/>
    <path id="Combined-Shape-2" class="cls-4" d="M51.32,50.52a5.76,5.76,0,0,1,4.23-4.23A5.76,5.76,0,0,1,51.32,50.52Z"/>
    <path id="Combined-Shape-3" class="cls-4" d="M58.27,46.29a5.74,5.74,0,0,1,4.23,4.23A5.76,5.76,0,0,1,58.27,46.29Z"/>
    <path id="Combined-Shape-4" class="cls-4" d="M62.5,39.34a5.74,5.74,0,0,1-4.23,4.23A5.76,5.76,0,0,1,62.5,39.34Z"/>
  </g>
</svg>
