<?xml version="1.0" encoding="utf-8"?>
<!-- Generator: Adobe Illustrator 24.2.3, SVG Export Plug-In . SVG Version: 6.00 Build 0)  -->
<svg version="1.1" id="Layer_1" xmlns="http://www.w3.org/2000/svg" xmlns:xlink="http://www.w3.org/1999/xlink" x="0px" y="0px"
	 viewBox="0 0 145.6 40" style="enable-background:new 0 0 145.6 40;" xml:space="preserve">
<style type="text/css">
	.st0{fill:#FFFFFF;}
</style>
<g>
	<path class="st0" d="M81.4,13.8c-1.3,0-2.3,0.3-3.3,0.8c0-2.9,0-5.5,0.1-6.4l-6.1,1.1v0.5l0.6,0.1c0.8,0.2,1.1,0.6,1.3,1.7
		c0.2,2.2,0.1,13.7,0,15.6c1.6,0.4,3.3,0.6,5.1,0.6c4.8,0,7.7-3,7.7-7.7C86.8,16.5,84.5,13.8,81.4,13.8L81.4,13.8z M79.3,26.9
		c-0.4,0-0.8,0-1.1-0.1c-0.1-1.3-0.2-6.6-0.1-11.3c0.5-0.2,0.9-0.3,1.4-0.3c2,0,3.1,2.3,3.1,5.2C82.6,24.1,81.2,26.9,79.3,26.9
		L79.3,26.9z M49.4,8.5H33.5v0.8l0.9,0.1c1.2,0.2,1.6,0.9,1.8,2.6c0.3,3.3,0.2,9.1,0,11.9c-0.2,1.7-0.6,2.5-1.8,2.6l-0.9,0.2v0.7
		h10.2v-0.7l-1.1-0.2c-1.2-0.1-1.6-0.9-1.8-2.6c-0.1-1.2-0.2-3.1-0.2-5.4l2.2,0.1c1.4,0,2,1.1,2.3,2.6h0.8v-6.4h-0.8
		c-0.3,1.5-0.9,2.6-2.3,2.6l-2.2,0.1c0-3.1,0.1-6,0.2-7.7H44c2.4,0,3.7,1.5,4.6,4.2l0.9-0.3L49.4,8.5L49.4,8.5z"/>
	<path class="st0" d="M54.5,13.6c4.5,0,6.8,3.1,6.8,7.1c0,3.9-2.5,7.1-7,7.1c-4.5,0-6.8-3.1-6.8-7.1C47.5,16.8,50,13.6,54.5,13.6
		L54.5,13.6z M54.3,14.5c-2,0-2.5,2.7-2.5,6.2c0,3.4,0.9,6.2,2.7,6.2c2.1,0,2.6-2.7,2.6-6.2C57.1,17.3,56.2,14.5,54.3,14.5z
		 M88,20.8c0-3.7,2.3-7.2,7-7.2c3.8,0,5.6,2.8,5.6,6.5h-8.4c-0.1,3.3,1.5,5.8,4.8,5.8c1.4,0,2.2-0.4,3.1-1l0.4,0.5
		c-0.9,1.3-2.9,2.5-5.4,2.5C90.9,27.8,88,25,88,20.8L88,20.8z M92.1,19.1l4.2-0.1c0-1.8-0.3-4.5-1.8-4.5S92.2,17,92.1,19.1z
		 M111.3,14.3c-1.1-0.5-2.5-0.7-4.2-0.7c-3.3,0-5.4,2-5.4,4.3s1.5,3.3,3.7,4.1c2.3,0.8,2.9,1.4,2.9,2.5c0,1.1-0.8,2.1-2.3,2.1
		c-1.7,0-3-1-4-3.7l-0.6,0.2l0.1,4c1.1,0.5,3.1,0.8,4.8,0.8c3.5,0,5.8-1.8,5.8-4.6c0-1.9-1-3-3.3-3.9c-2.5-1-3.4-1.6-3.4-2.8
		c0-1.2,0.8-2,1.9-2c1.6,0,2.7,1,3.5,3.4l0.6-0.2L111.3,14.3L111.3,14.3z M73.1,13.9c-1.5-0.9-4.2-0.5-5.7,2.8l0.1-3.2l-6.1,1.2v0.5
		l0.6,0.1c0.8,0.1,1.2,0.5,1.3,1.7c0.2,2.2,0.1,6,0,7.9c-0.1,1.1-0.5,1.6-1.3,1.7l-0.6,0.1v0.7h8.4v-0.7l-1.1-0.1
		c-0.9-0.1-1.2-0.6-1.3-1.7c-0.2-1.7-0.2-5.2-0.1-7.3c0.5-0.6,2.4-1.2,4.2,0L73.1,13.9L73.1,13.9z"/>
</g>
</svg>
