<svg xmlns="http://www.w3.org/2000/svg" width="21.472" height="21.472" viewBox="0 0 21.472 21.472">
  <path id="medium" d="M0,0V21.472H21.472V0ZM17.838,5.087l-1.151,1.1a.338.338,0,0,0-.128.324v8.112a.336.336,0,0,0,.128.323l1.125,1.1V16.3H12.155v-.242l1.165-1.132c.115-.115.115-.148.115-.322V8.043L10.2,16.269H9.757L5.985,8.043v5.514a.761.761,0,0,0,.208.633l1.516,1.838v.242h-4.3v-.242L4.93,14.189a.733.733,0,0,0,.2-.633V7.181a.558.558,0,0,0-.182-.471L3.6,5.087V4.845H7.777l3.232,7.088,2.841-7.089h3.987Z" fill="#fff"/>
</svg>
