<svg width="191" height="11" viewBox="0 0 191 11" fill="none" xmlns="http://www.w3.org/2000/svg">
<rect x="49.584" width="11" height="7.08341" transform="rotate(90 49.584 0)" fill="#C4C4C4" fill-opacity="0.2"/>
<rect x="133.94" width="11" height="7.08341" transform="rotate(90 133.94 0)" fill="#C4C4C4" fill-opacity="0.2"/>
<rect x="105.929" width="11" height="7.08341" transform="rotate(90 105.929 0)" fill="#C4C4C4" fill-opacity="0.2"/>
<rect x="190.286" width="11" height="7.08341" transform="rotate(90 190.286 0)" fill="#C4C4C4" fill-opacity="0.2"/>
<rect x="35.4172" width="11" height="7.08341" transform="rotate(90 35.4172 0)" fill="#C4C4C4" fill-opacity="0.2"/>
<rect x="119.774" width="11" height="7.08341" transform="rotate(90 119.774 0)" fill="#C4C4C4" fill-opacity="0.2"/>
<rect x="91.7622" width="11" height="7.08341" transform="rotate(90 91.7622 0)" fill="#C4C4C4" fill-opacity="0.2"/>
<rect x="176.119" width="11" height="7.08341" transform="rotate(90 176.119 0)" fill="#C4C4C4" fill-opacity="0.2"/>
<rect x="21.2507" width="11" height="7.08341" transform="rotate(90 21.2507 0)" fill="#C4C4C4" fill-opacity="0.2"/>
<rect x="77.5959" width="11" height="7.08341" transform="rotate(90 77.5959 0)" fill="#C4C4C4" fill-opacity="0.2"/>
<rect x="161.953" width="11" height="7.08341" transform="rotate(90 161.953 0)" fill="#C4C4C4" fill-opacity="0.2"/>
<rect x="7.08325" width="11" height="7.08341" transform="rotate(90 7.08325 0)" fill="#C4C4C4" fill-opacity="0.2"/>
<rect x="63.4285" width="11" height="7.08341" transform="rotate(90 63.4285 0)" fill="#C4C4C4" fill-opacity="0.2"/>
<rect x="147.785" width="11" height="7.08341" transform="rotate(90 147.785 0)" fill="#C4C4C4" fill-opacity="0.2"/>
</svg>
