<svg width="34" height="31" viewBox="0 0 34 31" fill="none" xmlns="http://www.w3.org/2000/svg">
<path d="M0 18.4391L3.07514 16.7098C3.07514 16.7098 7.37983 23.9407 8.63926 26.1196C8.8782 26.5316 9.15572 26.6577 9.62738 26.6552C12.7801 26.6358 15.9328 26.6358 19.0855 26.6552C19.5323 26.6552 19.7911 26.534 20.0201 26.1438C21.5965 23.4439 23.1932 20.7541 24.8102 18.0743C25.0441 17.6877 25.023 17.4127 24.7977 17.037C23.0418 14.1104 19.2174 7.63689 19.2174 7.63689L22.3287 5.89429C22.3287 5.89429 27.0577 13.8778 28.5735 16.4008C29.0551 17.2006 29.0502 17.9289 28.5735 18.7287C26.5375 22.1266 24.5181 25.5343 22.5153 28.9516C22.03 29.7805 21.3766 30.1489 20.3997 30.1441C16.3153 30.121 12.2296 30.1295 8.14519 30.138C7.32259 30.138 6.71403 29.829 6.30086 29.1298C4.26487 25.7027 0 18.4391 0 18.4391Z" fill="#F1F2F2"/>
<path d="M33.6984 11.6869L30.6556 13.398C30.6556 13.398 26.8188 6.99232 25.1076 4.06698C24.8475 3.61982 24.5513 3.46107 24.0287 3.46955C20.8975 3.49218 17.7664 3.49218 14.6352 3.46955C14.1536 3.46955 13.8885 3.62224 13.6583 4.02457C12.1239 6.65422 10.5782 9.28146 8.98899 11.882C8.66169 12.4152 8.70524 12.7873 9.01139 13.2938C10.745 16.1622 14.471 22.4915 14.471 22.4915L11.4195 24.2147C11.4195 24.2147 7.1459 17.0504 5.16716 13.7579C4.66936 12.9363 4.68181 12.1935 5.16716 11.3755C7.199 7.99611 9.21051 4.60584 11.2017 1.20466C11.6995 0.356382 12.3728 -0.00716412 13.3733 0.000106818C17.4378 0.0255551 21.5023 0.0146487 25.5693 0.000106818C26.3907 0.000106818 27.0005 0.306698 27.4149 1.00592C29.4596 4.47416 33.6984 11.6869 33.6984 11.6869Z" fill="#F1F2F2"/>
</svg>
