<svg width="190" height="217" viewBox="0 0 190 217" fill="none" xmlns="http://www.w3.org/2000/svg">
<path d="M42.0674 25.7215C42.0674 24.6347 41.1006 23.6687 40.0129 23.6687C38.9253 23.6687 37.9585 24.514 37.9585 25.7215C37.9585 26.8084 38.9253 27.7744 40.0129 27.7744C41.1006 27.7744 42.0674 26.8084 42.0674 25.7215Z" fill="#B4B9BB" fill-opacity="0.3"/>
<path d="M40.0129 146.237C41.1006 146.237 42.0674 145.271 42.0674 144.184C42.0674 143.097 41.1006 142.131 40.0129 142.131C38.8044 142.131 37.9585 143.097 37.9585 144.184C37.9585 145.271 38.9253 146.237 40.0129 146.237Z" fill="#B4B9BB" fill-opacity="0.3"/>
<path d="M40.0129 71.0056C38.8783 71.0056 37.9585 71.9247 37.9585 73.0585C37.9585 74.1922 38.8783 75.1113 40.0129 75.1113C41.1476 75.1113 42.0674 74.1922 42.0674 73.0585C42.0674 71.9247 41.1476 71.0056 40.0129 71.0056Z" fill="#B4B9BB" fill-opacity="0.3"/>
<path d="M40.0129 51.4424C41.1006 51.4424 42.0674 50.5971 42.0674 49.3895C42.0674 48.3027 41.2214 47.3366 40.0129 47.3366C38.8044 47.3366 37.9585 48.182 37.9585 49.3895C37.9585 50.4763 38.9253 51.4424 40.0129 51.4424Z" fill="#B4B9BB" fill-opacity="0.3"/>
<path d="M40.0129 59.1706C38.8783 59.1706 37.9585 60.0897 37.9585 61.2235C37.9585 62.3573 38.8783 63.2764 40.0129 63.2764C41.1476 63.2764 42.0674 62.3573 42.0674 61.2235C42.0674 60.0897 41.1476 59.1706 40.0129 59.1706Z" fill="#B4B9BB" fill-opacity="0.3"/>
<path d="M40.0129 122.447C41.1006 122.447 42.0674 121.602 42.0674 120.394C42.0674 119.308 41.2214 118.342 40.0129 118.342C38.9253 118.462 37.9585 119.308 37.9585 120.394C37.9585 121.481 38.8044 122.447 40.0129 122.447Z" fill="#B4B9BB" fill-opacity="0.3"/>
<path d="M40.0129 98.7793C41.1006 98.7793 42.0674 97.8132 42.0674 96.7264C42.0674 95.6396 41.1006 94.6736 40.0129 94.6736C38.9253 94.6736 37.9585 95.6396 37.9585 96.7264C37.9585 97.8132 38.9253 98.7793 40.0129 98.7793Z" fill="#B4B9BB" fill-opacity="0.3"/>
<path d="M40.0129 134.281C41.1006 134.281 42.0674 133.436 42.0674 132.228C42.0674 131.142 41.2214 130.176 40.0129 130.176C38.9253 130.296 37.9585 131.142 37.9585 132.228C37.9585 133.315 38.8044 134.281 40.0129 134.281Z" fill="#B4B9BB" fill-opacity="0.3"/>
<path d="M40.0129 110.613C41.1006 110.613 42.0674 109.647 42.0674 108.56C42.0674 107.473 41.1006 106.507 40.0129 106.507C38.8044 106.628 37.9585 107.473 37.9585 108.56C37.9585 109.647 38.9253 110.613 40.0129 110.613Z" fill="#B4B9BB" fill-opacity="0.3"/>
<path d="M40.0132 82.8389C38.9255 82.9597 38.2004 83.805 38.0796 84.771C37.9587 85.9786 38.8047 86.9447 40.0132 87.0654C40.134 87.0654 40.2549 87.0654 40.3757 87.0654C41.5842 86.9447 42.4302 85.9786 42.3093 84.771C42.1885 83.5635 41.2217 82.7182 40.0132 82.8389Z" fill="#B4B9BB" fill-opacity="0.3"/>
<path d="M27.4445 158.071C28.5322 158.071 29.499 157.226 29.499 156.018C29.499 154.931 28.6531 153.965 27.4445 153.965C26.3569 153.965 25.3901 154.931 25.3901 156.018C25.3901 157.105 26.236 158.071 27.4445 158.071Z" fill="#B4B9BB" fill-opacity="0.3"/>
<path d="M27.4443 189.468C26.3566 189.468 25.3899 190.434 25.5107 191.641C25.5107 192.728 26.4775 193.694 27.5652 193.694C28.6528 193.694 29.6196 192.728 29.6196 191.641C29.6196 191.521 29.6196 191.521 29.6196 191.521C29.4988 190.313 28.532 189.468 27.4443 189.468Z" fill="#B4B9BB" fill-opacity="0.3"/>
<path d="M27.4445 134.281C28.5322 134.281 29.499 133.436 29.499 132.228C29.499 131.142 28.6531 130.176 27.4445 130.176C26.3569 130.296 25.3901 131.142 25.3901 132.228C25.3901 133.315 26.236 134.281 27.4445 134.281Z" fill="#B4B9BB" fill-opacity="0.3"/>
<path d="M39.8921 39.6079C40.0129 39.6079 40.1338 39.6079 40.2546 39.6079C41.4631 39.6079 42.3091 38.5211 42.1882 37.4343C42.1882 36.2267 41.1006 35.3814 40.0129 35.5022C39.0461 35.5022 38.2002 36.3475 37.9585 37.4343C37.8376 38.5211 38.8044 39.4872 39.8921 39.6079Z" fill="#B4B9BB" fill-opacity="0.3"/>
<path d="M27.4443 142.131C26.3566 142.131 25.3899 143.097 25.5107 144.305C25.5107 145.392 26.4775 146.358 27.5652 146.358C28.6528 146.358 29.6196 145.392 29.6196 144.305C29.6196 144.184 29.6196 144.184 29.6196 144.184C29.4988 142.977 28.532 142.131 27.4443 142.131Z" fill="#B4B9BB" fill-opacity="0.3"/>
<path d="M27.4445 122.447C28.5322 122.447 29.499 121.602 29.499 120.394C29.499 119.308 28.6531 118.342 27.4445 118.342C26.3569 118.462 25.3901 119.308 25.3901 120.394C25.3901 121.481 26.236 122.447 27.4445 122.447Z" fill="#B4B9BB" fill-opacity="0.3"/>
<path d="M27.4445 169.905C28.5322 169.905 29.499 169.059 29.499 167.852C29.499 166.765 28.6531 165.799 27.4445 165.799C26.3569 165.799 25.3901 166.765 25.3901 167.852C25.3901 168.939 26.236 169.905 27.4445 169.905Z" fill="#B4B9BB" fill-opacity="0.3"/>
<path d="M27.4445 181.74C28.5322 181.74 29.499 180.774 29.499 179.687C29.499 178.6 28.5322 177.634 27.4445 177.634C26.3569 177.634 25.3901 178.6 25.3901 179.687C25.3901 180.774 26.3569 181.74 27.4445 181.74Z" fill="#B4B9BB" fill-opacity="0.3"/>
<path d="M25.3898 203.113L28.0486 201.543C27.8069 201.423 27.686 201.423 27.4443 201.423C26.4775 201.423 25.6315 202.026 25.3898 203.113Z" fill="#B4B9BB" fill-opacity="0.3"/>
<path d="M52.5815 98.7793C53.6692 98.7793 54.636 97.8132 54.636 96.7264C54.636 95.6396 53.6692 94.6736 52.5815 94.6736C51.373 94.6736 50.5271 95.6396 50.5271 96.7264C50.5271 97.8132 51.4939 98.7793 52.5815 98.7793Z" fill="#B4B9BB" fill-opacity="0.3"/>
<path d="M52.3398 110.493C53.5483 110.614 54.5151 109.768 54.636 108.561C54.636 107.474 53.6692 106.508 52.5815 106.508C51.373 106.508 50.4062 107.474 50.4062 108.561C50.5271 109.648 51.2522 110.372 52.3398 110.493Z" fill="#B4B9BB" fill-opacity="0.3"/>
<path d="M52.5815 86.9443C53.6692 86.9443 54.636 85.9783 54.636 84.8915C54.636 83.8047 53.79 82.8386 52.5815 82.8386C51.373 82.8386 50.5271 83.8047 50.5271 84.8915C50.5271 85.9783 51.373 86.9443 52.5815 86.9443Z" fill="#B4B9BB" fill-opacity="0.3"/>
<path d="M50.406 144.546C50.5268 145.753 51.4936 146.599 52.7021 146.478C53.9106 146.357 54.7566 145.391 54.6357 144.183C54.6357 143.097 53.6689 142.131 52.5813 142.131C51.3728 142.131 50.406 143.097 50.406 144.183C50.406 144.304 50.406 144.425 50.406 144.546Z" fill="#B4B9BB" fill-opacity="0.3"/>
<path d="M52.5815 177.634C51.373 177.634 50.5271 178.6 50.5271 179.687C50.5271 180.774 51.4939 181.74 52.5815 181.74C53.6692 181.74 54.636 180.774 54.636 179.687C54.636 178.6 53.6692 177.634 52.5815 177.634Z" fill="#B4B9BB" fill-opacity="0.3"/>
<path d="M65.1499 177.633C64.0622 177.754 63.3371 178.478 63.0954 179.565C63.0954 180.048 63.2163 180.652 63.5788 181.014L67.2043 178.961C66.8418 178.116 65.9958 177.512 65.1499 177.633Z" fill="#B4B9BB" fill-opacity="0.3"/>
<path d="M52.5815 165.799C51.373 165.799 50.5271 166.765 50.5271 167.852C50.5271 168.939 51.373 169.905 52.5815 169.905C53.6692 169.905 54.636 168.939 54.636 167.852C54.636 166.765 53.79 165.799 52.5815 165.799Z" fill="#B4B9BB" fill-opacity="0.3"/>
<path d="M52.5815 153.965C51.373 153.965 50.4062 154.931 50.5271 156.018C50.5271 157.105 51.373 158.071 52.5815 158.071C53.6692 158.071 54.636 157.105 54.636 156.018C54.636 154.931 53.79 153.965 52.5815 153.965Z" fill="#B4B9BB" fill-opacity="0.3"/>
<path d="M52.5815 75.1113C53.6692 75.1113 54.636 74.1453 54.636 73.0585C54.636 71.9716 53.6692 71.0056 52.5815 71.0056C51.373 71.0056 50.4062 71.8509 50.5271 73.0585C50.5271 74.1453 51.4939 75.1113 52.5815 75.1113Z" fill="#B4B9BB" fill-opacity="0.3"/>
<path d="M40.0129 165.799C38.8783 165.799 37.9585 166.718 37.9585 167.852C37.9585 168.986 38.8783 169.905 40.0129 169.905C41.1476 169.905 42.0674 168.986 42.0674 167.852C42.0674 166.718 41.1476 165.799 40.0129 165.799Z" fill="#B4B9BB" fill-opacity="0.3"/>
<path d="M40.0129 193.573C41.1006 193.573 42.0674 192.607 42.0674 191.52C42.0674 190.434 41.1006 189.468 40.0129 189.468C38.8044 189.468 37.9585 190.434 37.9585 191.52C37.9585 192.607 38.9253 193.573 40.0129 193.573Z" fill="#B4B9BB" fill-opacity="0.3"/>
<path d="M39.8921 181.74C40.0129 181.74 40.1338 181.74 40.2546 181.74C41.4631 181.74 42.3091 180.653 42.1882 179.566C42.1882 178.359 41.1006 177.513 40.0129 177.634C39.0461 177.755 38.2002 178.479 37.9585 179.566C37.8376 180.653 38.8044 181.619 39.8921 181.74Z" fill="#B4B9BB" fill-opacity="0.3"/>
<path d="M52.5815 118.342C51.373 118.463 50.527 119.308 50.527 120.516C50.527 121.723 51.4939 122.689 52.7024 122.568C53.9109 122.448 54.7568 121.602 54.7568 120.395C54.636 119.187 53.79 118.342 52.5815 118.342Z" fill="#B4B9BB" fill-opacity="0.3"/>
<path d="M40.0129 153.965C38.8783 153.965 37.9585 154.884 37.9585 156.018C37.9585 157.152 38.8783 158.071 40.0129 158.071C41.1476 158.071 42.0674 157.152 42.0674 156.018C42.0674 154.884 41.1476 153.965 40.0129 153.965Z" fill="#B4B9BB" fill-opacity="0.3"/>
<path d="M52.5815 130.176C51.373 130.296 50.5271 131.142 50.5271 132.228C50.5271 133.315 51.373 134.281 52.5815 134.281C53.6692 134.281 54.636 133.315 54.636 132.228C54.636 131.142 53.79 130.176 52.5815 130.176Z" fill="#B4B9BB" fill-opacity="0.3"/>
<path d="M52.5815 63.2764C53.6692 63.2764 54.636 62.3103 54.636 61.2235C54.636 60.1367 53.6692 59.1706 52.5815 59.1706C51.373 59.1706 50.5271 60.1367 50.5271 61.2235C50.5271 62.3103 51.4939 63.2764 52.5815 63.2764Z" fill="#B4B9BB" fill-opacity="0.3"/>
<path d="M52.5815 39.6079C53.6692 39.6079 54.636 38.6419 54.636 37.555C54.636 36.4682 53.6692 35.5022 52.5815 35.5022C51.373 35.5022 50.4062 36.4682 50.5271 37.555C50.5271 38.6419 51.4939 39.6079 52.5815 39.6079Z" fill="#B4B9BB" fill-opacity="0.3"/>
<path d="M52.5815 51.4429C53.6692 51.4429 54.636 50.5976 54.636 49.39C54.636 48.3032 53.79 47.3371 52.5815 47.3371C51.373 47.3371 50.5271 48.3032 50.5271 49.39C50.5271 50.4768 51.373 51.4429 52.5815 51.4429Z" fill="#B4B9BB" fill-opacity="0.3"/>
<path d="M27.4445 86.9443C28.5322 86.9443 29.499 85.9783 29.499 84.8915C29.499 83.8047 28.6531 82.8386 27.4445 82.8386C26.3569 82.8386 25.3901 83.8047 25.3901 84.8915C25.3901 85.9783 26.236 86.9443 27.4445 86.9443Z" fill="#B4B9BB" fill-opacity="0.3"/>
<path d="M2.3076 98.7793C3.39526 98.7793 4.36206 97.8132 4.36206 96.7264C4.36206 95.6396 3.39526 94.6736 2.3076 94.6736C1.21994 94.6736 0.253116 95.6396 0.253116 96.7264C0.253116 97.8132 1.21994 98.7793 2.3076 98.7793Z" fill="#B4B9BB" fill-opacity="0.3"/>
<path d="M2.06589 110.493C3.27439 110.614 4.24121 109.768 4.36206 108.561C4.36206 107.474 3.39526 106.508 2.3076 106.508C1.21995 106.508 0.253136 107.474 0.132285 108.561C0.253136 109.648 0.97823 110.372 2.06589 110.493Z" fill="#B4B9BB" fill-opacity="0.3"/>
<path d="M2.30735 205.528C3.39501 205.528 4.36182 204.562 4.36182 203.475C4.36182 202.389 3.51586 201.423 2.30735 201.423C1.21969 201.423 0.252872 202.268 0.252872 203.475C0.252872 204.562 1.09884 205.528 2.30735 205.528Z" fill="#B4B9BB" fill-opacity="0.3"/>
<path d="M2.30735 75.1113C3.39501 75.1113 4.36182 74.1453 4.36182 73.0585C4.36182 71.9716 3.39501 71.0056 2.30735 71.0056C1.21969 71.0056 0.252872 71.8509 0.252872 73.0585C0.252872 74.1453 1.21969 75.1113 2.30735 75.1113Z" fill="#B4B9BB" fill-opacity="0.3"/>
<path d="M14.876 94.6736C13.7883 94.6736 12.8215 95.6396 12.8215 96.7264C12.8215 97.8132 13.7883 98.7793 14.876 98.7793C15.9636 98.7793 16.9304 97.8132 16.9304 96.7264C16.9304 95.6396 15.9636 94.6736 14.876 94.6736Z" fill="#B4B9BB" fill-opacity="0.3"/>
<path d="M2.3076 86.9443C3.39526 86.9443 4.36206 85.9783 4.36206 84.8915C4.36206 83.8047 3.51611 82.8386 2.3076 82.8386C1.21994 82.8386 0.253116 83.8047 0.253116 84.8915C0.253116 85.9783 1.09909 86.9443 2.3076 86.9443Z" fill="#B4B9BB" fill-opacity="0.3"/>
<path d="M14.876 82.8386C13.7883 82.8386 12.8215 83.8047 12.8215 84.8915C12.8215 85.9783 13.6675 86.9443 14.876 86.9443C15.9636 86.9443 16.9304 85.9783 16.9304 84.8915C16.9304 83.8047 16.0845 82.8386 14.876 82.8386Z" fill="#B4B9BB" fill-opacity="0.3"/>
<path d="M14.876 71.0056C13.7413 71.0056 12.8215 71.9247 12.8215 73.0585C12.8215 74.1922 13.7413 75.1113 14.876 75.1113C16.0106 75.1113 16.9304 74.1922 16.9304 73.0585C16.9304 71.9247 16.0106 71.0056 14.876 71.0056Z" fill="#B4B9BB" fill-opacity="0.3"/>
<path d="M14.876 11.8347C13.7413 11.8347 12.8215 12.7538 12.8215 13.8876C12.8215 15.0213 13.7413 15.9404 14.876 15.9404C16.0106 15.9404 16.9304 15.0213 16.9304 13.8876C16.9304 12.7538 16.0106 11.8347 14.876 11.8347Z" fill="#B4B9BB" fill-opacity="0.3"/>
<path d="M12.7006 26.0833C12.8215 27.2909 13.7883 28.1361 14.9968 28.0154C16.2053 27.8946 17.0513 26.9286 16.9304 25.721C16.9304 24.5134 15.9636 23.6682 14.8759 23.6682C13.7883 23.6682 12.8215 24.5134 12.7006 25.721C12.7006 25.8418 12.7006 25.9625 12.7006 26.0833Z" fill="#B4B9BB" fill-opacity="0.3"/>
<path d="M2.30735 177.634C1.21969 177.634 0.252872 178.6 0.252872 179.687C0.252872 180.774 1.21969 181.74 2.30735 181.74C3.39501 181.74 4.36182 180.774 4.36182 179.687C4.36182 178.6 3.39501 177.634 2.30735 177.634Z" fill="#B4B9BB" fill-opacity="0.3"/>
<path d="M2.30735 189.468C1.21969 189.468 0.252872 190.434 0.252872 191.52C0.252872 192.607 1.09884 193.573 2.30735 193.573C3.39501 193.573 4.36182 192.728 4.36182 191.52C4.36182 190.434 3.39501 189.468 2.30735 189.468Z" fill="#B4B9BB" fill-opacity="0.3"/>
<path d="M2.30735 165.799C1.21969 165.799 0.252872 166.765 0.252872 167.852C0.252872 168.939 1.09884 169.905 2.30735 169.905C3.39501 169.905 4.36182 168.939 4.36182 167.852C4.36182 166.765 3.51586 165.799 2.30735 165.799Z" fill="#B4B9BB" fill-opacity="0.3"/>
<path d="M188.418 108.802L189.022 108.44L188.539 108.198C188.539 108.319 188.418 108.44 188.418 108.561C188.418 108.681 188.418 108.681 188.418 108.802Z" fill="#B4B9BB" fill-opacity="0.3"/>
<path d="M4.60375 155.897C4.4829 154.689 3.51611 153.844 2.30761 153.964C1.34081 153.964 0.494854 154.81 0.374004 155.897C0.253154 157.104 1.09911 158.07 2.30761 158.191C2.42846 158.191 2.5493 158.191 2.67015 158.191C3.87865 158.07 4.7246 157.104 4.60375 155.897Z" fill="#B4B9BB" fill-opacity="0.3"/>
<path d="M2.30735 134.281C3.39501 134.281 4.36182 133.315 4.36182 132.228C4.36182 131.142 3.51586 130.176 2.30735 130.176C1.21969 130.296 0.252872 131.142 0.252872 132.228C0.252872 133.315 1.09884 134.281 2.30735 134.281Z" fill="#B4B9BB" fill-opacity="0.3"/>
<path d="M2.30735 146.237C3.39501 146.237 4.36182 145.392 4.36182 144.184C4.36182 143.097 3.39501 142.131 2.30735 142.131C1.21969 142.131 0.252872 142.976 0.252872 144.184C0.252872 145.271 1.09884 146.237 2.30735 146.237Z" fill="#B4B9BB" fill-opacity="0.3"/>
<path d="M4.36182 120.394C4.36182 119.308 3.51586 118.342 2.30735 118.342C1.21969 118.342 0.252872 119.308 0.252872 120.394C0.252872 121.481 1.09884 122.447 2.30735 122.447C3.39501 122.447 4.36182 121.481 4.36182 120.394Z" fill="#B4B9BB" fill-opacity="0.3"/>
<path d="M27.4445 39.6079C28.5322 39.6079 29.499 38.6419 29.499 37.555C29.499 36.4682 28.5322 35.5022 27.4445 35.5022C26.3569 35.5022 25.3901 36.4682 25.3901 37.555C25.3901 38.6419 26.3569 39.6079 27.4445 39.6079Z" fill="#B4B9BB" fill-opacity="0.3"/>
<path d="M27.4445 98.7793C28.5322 98.7793 29.499 97.8132 29.499 96.7264C29.499 95.6396 28.5322 94.6736 27.4445 94.6736C26.3569 94.6736 25.3901 95.6396 25.3901 96.7264C25.3901 97.8132 26.3569 98.7793 27.4445 98.7793Z" fill="#B4B9BB" fill-opacity="0.3"/>
<path d="M14.876 201.423C13.7413 201.423 12.8215 202.342 12.8215 203.475C12.8215 204.609 13.7413 205.528 14.876 205.528C16.0106 205.528 16.9304 204.609 16.9304 203.475C16.9304 202.342 16.0106 201.423 14.876 201.423Z" fill="#B4B9BB" fill-opacity="0.3"/>
<path d="M12.7006 191.883C12.8215 193.09 13.7883 193.935 14.9968 193.815C16.2053 193.694 17.0513 192.728 16.9304 191.52C16.9304 190.313 15.9636 189.467 14.8759 189.467C13.7883 189.467 12.8215 190.434 12.7006 191.52C12.7006 191.641 12.7006 191.762 12.7006 191.883Z" fill="#B4B9BB" fill-opacity="0.3"/>
<path d="M27.4445 27.7744C28.5322 27.7744 29.499 26.8084 29.499 25.7215C29.499 24.514 28.5322 23.6687 27.4445 23.6687C26.3569 23.6687 25.3901 24.514 25.3901 25.7215C25.3901 26.8084 26.3569 27.7744 27.4445 27.7744Z" fill="#B4B9BB" fill-opacity="0.3"/>
<path d="M27.4445 75.1113C28.5322 75.1113 29.499 74.1453 29.499 73.0585C29.499 71.9716 28.5322 71.0056 27.4445 71.0056C26.3569 71.0056 25.3901 71.8509 25.3901 73.0585C25.3901 74.1453 26.3569 75.1113 27.4445 75.1113Z" fill="#B4B9BB" fill-opacity="0.3"/>
<path d="M14.876 153.965C13.7413 153.965 12.8215 154.884 12.8215 156.018C12.8215 157.152 13.7413 158.071 14.876 158.071C16.0106 158.071 16.9304 157.152 16.9304 156.018C16.9304 154.884 16.0106 153.965 14.876 153.965Z" fill="#B4B9BB" fill-opacity="0.3"/>
<path d="M65.1499 63.2764C66.2375 63.2764 67.2043 62.3103 67.2043 61.2235C67.2043 60.1367 66.2375 59.1706 65.1499 59.1706C63.9414 59.1706 63.0954 60.1367 63.0954 61.2235C63.0954 62.3103 64.0622 63.2764 65.1499 63.2764Z" fill="#B4B9BB" fill-opacity="0.3"/>
<path d="M27.4443 106.507C26.3566 106.628 25.3899 107.473 25.5107 108.681C25.5107 109.768 26.4775 110.734 27.5652 110.734C28.6528 110.734 29.6196 109.768 29.6196 108.681C29.6196 108.56 29.6196 108.56 29.6196 108.56C29.4988 107.353 28.532 106.507 27.4443 106.507Z" fill="#B4B9BB" fill-opacity="0.3"/>
<path d="M14.8762 59.1706C13.7416 59.1706 12.8218 60.0897 12.8218 61.2235C12.8218 62.3573 13.7416 63.2764 14.8762 63.2764C16.0109 63.2764 16.9307 62.3573 16.9307 61.2235C16.9307 60.0897 16.0109 59.1706 14.8762 59.1706Z" fill="#B4B9BB" fill-opacity="0.3"/>
<path d="M27.4445 51.4429C28.5322 51.4429 29.499 50.5976 29.499 49.39C29.499 48.3032 28.6531 47.3371 27.4445 47.3371C26.3569 47.3371 25.3901 48.3032 25.3901 49.39C25.3901 50.4768 26.236 51.4429 27.4445 51.4429Z" fill="#B4B9BB" fill-opacity="0.3"/>
<path d="M14.876 118.342C13.7883 118.462 12.8215 119.308 12.8215 120.394C12.8215 121.481 13.6675 122.447 14.876 122.447C15.9636 122.447 16.9304 121.602 16.9304 120.394C16.9304 119.308 16.0845 118.342 14.876 118.342Z" fill="#B4B9BB" fill-opacity="0.3"/>
<path d="M14.6343 110.493C15.8428 110.614 16.8096 109.768 16.9304 108.561C16.9304 107.353 15.9636 106.508 14.876 106.508C13.7883 106.629 12.8215 107.474 12.7007 108.561C12.8215 109.648 13.5466 110.372 14.6343 110.493Z" fill="#B4B9BB" fill-opacity="0.3"/>
<path d="M14.876 35.5022C13.7883 35.5022 12.8215 36.4682 12.8215 37.555C12.8215 38.6419 13.7883 39.6079 14.876 39.6079C15.9636 39.6079 16.9304 38.6419 16.9304 37.555C16.9304 36.4682 15.9636 35.5022 14.876 35.5022Z" fill="#B4B9BB" fill-opacity="0.3"/>
<path d="M14.876 177.634C13.7413 177.634 12.8215 178.553 12.8215 179.687C12.8215 180.821 13.7413 181.74 14.876 181.74C16.0106 181.74 16.9304 180.821 16.9304 179.687C16.9304 178.553 16.0106 177.634 14.876 177.634Z" fill="#B4B9BB" fill-opacity="0.3"/>
<path d="M14.8762 47.3371C13.7886 47.3371 12.8218 48.3032 12.8218 49.39C12.8218 50.4768 13.6677 51.4429 14.8762 51.4429C15.9639 51.4429 16.9307 50.5976 16.9307 49.39C16.9307 48.3032 16.0847 47.3371 14.8762 47.3371Z" fill="#B4B9BB" fill-opacity="0.3"/>
<path d="M14.876 165.799C13.7413 165.799 12.8215 166.718 12.8215 167.852C12.8215 168.986 13.7413 169.905 14.876 169.905C16.0106 169.905 16.9304 168.986 16.9304 167.852C16.9304 166.718 16.0106 165.799 14.876 165.799Z" fill="#B4B9BB" fill-opacity="0.3"/>
<path d="M12.7006 144.546C12.8215 145.753 13.7883 146.599 14.9968 146.478C16.2053 146.357 17.0513 145.391 16.9304 144.183C16.9304 142.976 15.9636 142.131 14.8759 142.131C13.7883 142.131 12.8215 143.097 12.7006 144.183C12.7006 144.304 12.7006 144.425 12.7006 144.546Z" fill="#B4B9BB" fill-opacity="0.3"/>
<path d="M12.8215 132.228C12.8215 133.315 13.6675 134.281 14.876 134.281C15.9636 134.281 16.9304 133.436 16.9304 132.228C16.9304 131.142 16.0845 130.176 14.876 130.176C13.7883 130.296 12.8215 131.142 12.8215 132.228Z" fill="#B4B9BB" fill-opacity="0.3"/>
<path d="M27.4445 63.2764C28.5322 63.2764 29.499 62.3103 29.499 61.2235C29.499 60.1367 28.5322 59.1706 27.4445 59.1706C26.3569 59.1706 25.3901 60.1367 25.3901 61.2235C25.3901 62.3103 26.3569 63.2764 27.4445 63.2764Z" fill="#B4B9BB" fill-opacity="0.3"/>
<path d="M127.63 110.493C128.838 110.614 129.805 109.768 129.926 108.561C129.926 107.353 128.959 106.508 127.872 106.508C126.784 106.508 125.817 107.474 125.696 108.561C125.817 109.648 126.542 110.372 127.63 110.493Z" fill="#B4B9BB" fill-opacity="0.3"/>
<path d="M125.817 132.228C125.817 133.315 126.663 134.281 127.872 134.281C128.959 134.281 129.926 133.436 129.926 132.228C129.926 131.142 129.08 130.176 127.872 130.176C126.784 130.296 125.817 131.142 125.817 132.228Z" fill="#B4B9BB" fill-opacity="0.3"/>
<path d="M127.872 118.342C126.784 118.462 125.817 119.308 125.817 120.394C125.817 121.481 126.663 122.447 127.872 122.447C128.959 122.447 129.926 121.602 129.926 120.394C129.926 119.308 129.08 118.342 127.872 118.342Z" fill="#B4B9BB" fill-opacity="0.3"/>
<path d="M127.872 86.9443C128.959 86.9443 129.926 85.9783 129.926 84.8915C129.926 83.8047 129.08 82.8386 127.872 82.8386C126.784 82.8386 125.817 83.8047 125.817 84.8915C125.817 85.9783 126.784 86.9443 127.872 86.9443Z" fill="#B4B9BB" fill-opacity="0.3"/>
<path d="M140.44 122.447C141.528 122.447 142.494 121.481 142.494 120.394C142.494 119.308 141.648 118.342 140.44 118.342C139.231 118.342 138.385 119.308 138.385 120.394C138.385 121.481 139.352 122.447 140.44 122.447Z" fill="#B4B9BB" fill-opacity="0.3"/>
<path d="M65.1499 51.4429C66.2375 51.4429 67.2043 50.5976 67.2043 49.39C67.2043 48.3032 66.3584 47.3371 65.1499 47.3371C63.9414 47.3371 62.9746 48.1824 63.0954 49.39C63.0954 50.4768 63.9414 51.4429 65.1499 51.4429Z" fill="#B4B9BB" fill-opacity="0.3"/>
<path d="M140.44 110.613C141.528 110.613 142.494 109.647 142.494 108.56C142.494 107.473 141.528 106.507 140.44 106.507C139.231 106.507 138.385 107.473 138.385 108.56C138.385 109.647 139.352 110.613 140.44 110.613Z" fill="#B4B9BB" fill-opacity="0.3"/>
<path d="M127.872 98.7793C128.959 98.7793 129.926 97.8132 129.926 96.7264C129.926 95.6396 128.959 94.6736 127.872 94.6736C126.784 94.6736 125.817 95.6396 125.817 96.7264C125.817 97.8132 126.784 98.7793 127.872 98.7793Z" fill="#B4B9BB" fill-opacity="0.3"/>
<path d="M140.44 86.9443C141.528 86.9443 142.494 86.099 142.494 84.8915C142.494 83.8047 141.648 82.8386 140.44 82.8386C139.231 82.8386 138.385 83.8047 138.385 84.8915C138.385 85.9783 139.231 86.9443 140.44 86.9443Z" fill="#B4B9BB" fill-opacity="0.3"/>
<path d="M115.303 134.281C116.391 134.281 117.357 133.436 117.357 132.228C117.357 131.142 116.511 130.176 115.303 130.176C114.215 130.296 113.248 131.142 113.248 132.228C113.248 133.315 114.094 134.281 115.303 134.281Z" fill="#B4B9BB" fill-opacity="0.3"/>
<path d="M115.303 86.9443C116.391 86.9443 117.357 85.9783 117.357 84.8915C117.357 83.8047 116.511 82.8386 115.303 82.8386C114.215 82.8386 113.248 83.8047 113.248 84.8915C113.248 85.9783 114.215 86.9443 115.303 86.9443Z" fill="#B4B9BB" fill-opacity="0.3"/>
<path d="M115.303 71.0056C114.168 71.0056 113.248 71.9247 113.248 73.0585C113.248 74.1922 114.168 75.1113 115.303 75.1113C116.438 75.1113 117.357 74.1922 117.357 73.0585C117.357 71.9247 116.438 71.0056 115.303 71.0056Z" fill="#B4B9BB" fill-opacity="0.3"/>
<path d="M102.735 146.237C103.822 146.237 104.789 145.271 104.789 144.184C104.789 143.097 103.822 142.131 102.735 142.131C101.647 142.131 100.68 143.097 100.68 144.184C100.68 145.271 101.647 146.237 102.735 146.237Z" fill="#B4B9BB" fill-opacity="0.3"/>
<path d="M115.303 98.7793C116.391 98.7793 117.357 97.8132 117.357 96.7264C117.357 95.6396 116.391 94.6736 115.303 94.6736C114.215 94.6736 113.248 95.6396 113.248 96.7264C113.248 97.8132 114.215 98.7793 115.303 98.7793Z" fill="#B4B9BB" fill-opacity="0.3"/>
<path d="M102.735 134.281C103.822 134.281 104.789 133.436 104.789 132.228C104.789 131.142 103.943 130.176 102.735 130.176C101.647 130.296 100.68 131.142 100.68 132.228C100.68 133.315 101.526 134.281 102.735 134.281Z" fill="#B4B9BB" fill-opacity="0.3"/>
<path d="M115.303 146.237C116.391 146.237 117.357 145.271 117.357 144.184C117.357 143.097 116.391 142.131 115.303 142.131C114.215 142.131 113.248 143.097 113.248 144.184C113.248 145.271 114.215 146.237 115.303 146.237Z" fill="#B4B9BB" fill-opacity="0.3"/>
<path d="M140.44 134.281C141.528 134.281 142.494 133.315 142.494 132.228C142.494 131.142 141.648 130.176 140.44 130.176C139.231 130.176 138.385 131.142 138.385 132.228C138.385 133.315 139.352 134.281 140.44 134.281Z" fill="#B4B9BB" fill-opacity="0.3"/>
<path d="M115.303 122.447C116.391 122.447 117.357 121.602 117.357 120.394C117.357 119.308 116.511 118.342 115.303 118.342C114.215 118.462 113.248 119.308 113.248 120.394C113.248 121.481 114.094 122.447 115.303 122.447Z" fill="#B4B9BB" fill-opacity="0.3"/>
<path d="M115.303 110.613C116.391 110.613 117.357 109.647 117.357 108.56C117.357 107.473 116.391 106.507 115.303 106.507C114.215 106.628 113.248 107.473 113.248 108.56C113.248 109.647 114.215 110.613 115.303 110.613Z" fill="#B4B9BB" fill-opacity="0.3"/>
<path d="M127.871 142.131C126.784 142.131 125.817 143.097 125.696 144.184C125.696 144.305 125.696 144.426 125.696 144.546C125.696 144.667 125.696 144.909 125.817 145.029L129.442 142.856C129.08 142.373 128.476 142.131 127.871 142.131Z" fill="#B4B9BB" fill-opacity="0.3"/>
<path d="M0.253116 49.39C0.253116 50.4768 1.09909 51.4429 2.3076 51.4429C3.39526 51.4429 4.36206 50.5976 4.36206 49.39C4.36206 48.3032 3.51611 47.3371 2.3076 47.3371C1.21994 47.3371 0.253116 48.3032 0.253116 49.39Z" fill="#B4B9BB" fill-opacity="0.3"/>
<path d="M153.009 110.613C154.096 110.613 155.063 109.767 155.063 108.56C155.063 107.473 154.096 106.507 153.009 106.507C151.8 106.507 150.954 107.473 150.954 108.56C150.954 109.647 151.8 110.613 153.009 110.613Z" fill="#B4B9BB" fill-opacity="0.3"/>
<path d="M63.0954 37.4343C62.9746 38.5211 63.9414 39.4872 65.029 39.6079C65.1499 39.6079 65.2707 39.6079 65.3916 39.6079C66.3584 39.6079 67.2043 38.8834 67.3252 37.9173L63.9414 35.9852C63.458 36.3475 63.2163 36.8305 63.0954 37.4343Z" fill="#B4B9BB" fill-opacity="0.3"/>
<path d="M27.4446 15.9404C27.928 15.9404 28.2905 15.8197 28.6531 15.5782L25.3901 13.7668C25.3901 13.8876 25.3901 13.8876 25.3901 14.0083C25.3901 14.9744 26.236 15.9404 27.4446 15.9404Z" fill="#B4B9BB" fill-opacity="0.3"/>
<path d="M2.30735 35.5022C1.21969 35.5022 0.252872 36.4682 0.252872 37.555C0.252872 38.6419 1.21969 39.6079 2.30735 39.6079C3.39501 39.6079 4.36182 38.6419 4.36182 37.555C4.36182 36.4682 3.39501 35.5022 2.30735 35.5022Z" fill="#B4B9BB" fill-opacity="0.3"/>
<path d="M2.18675 63.2771C2.3076 63.2771 2.42845 63.2771 2.5493 63.2771C3.75781 63.2771 4.60375 62.1903 4.4829 61.1035C4.4829 59.8959 3.39526 59.0506 2.30761 59.1714C2.30761 59.1714 2.18675 59.1714 1.94505 59.1714C0.736544 59.1714 -0.109417 60.2582 0.0114339 61.345C0.011434 62.5526 1.09909 63.3979 2.18675 63.2771Z" fill="#B4B9BB" fill-opacity="0.3"/>
<path d="M4.36206 215.189C4.36206 214.102 3.51611 213.136 2.3076 213.136C1.21995 213.136 0.253136 214.102 0.132285 215.189C0.253136 216.034 0.736528 216.638 1.46163 217L4.36206 215.189Z" fill="#B4B9BB" fill-opacity="0.3"/>
<path d="M2.30735 11.8347C1.21969 11.8347 0.252872 12.68 0.252872 13.8876C0.252872 14.9744 1.09884 15.9404 2.30735 15.9404C3.39501 15.9404 4.36182 15.0951 4.36182 13.8876C4.36182 12.8008 3.51586 11.8347 2.30735 11.8347Z" fill="#B4B9BB" fill-opacity="0.3"/>
<path d="M2.30736 23.6681C1.2197 23.6681 0.252892 24.6341 0.132041 25.8417C0.252892 27.0492 1.09885 27.8945 2.30736 27.8945C3.51587 27.7738 4.36182 26.9285 4.36182 25.7209C4.36182 24.5133 3.39501 23.6681 2.30736 23.6681Z" fill="#B4B9BB" fill-opacity="0.3"/>
<path d="M0.252872 1.932C0.252872 3.01881 1.21969 3.98486 2.30735 3.98486C3.39501 3.98486 4.36182 3.01881 4.36182 1.932C4.36182 1.81124 4.36182 1.56972 4.36182 1.44896L1.82394 -0.000121848C0.85713 0.241392 0.252872 1.0867 0.252872 1.932Z" fill="#B4B9BB" fill-opacity="0.3"/>
<path d="M165.577 110.613C166.665 110.613 167.631 109.647 167.631 108.56C167.631 107.473 166.665 106.507 165.577 106.507C164.368 106.507 163.402 107.473 163.522 108.56C163.522 109.647 164.489 110.613 165.577 110.613Z" fill="#B4B9BB" fill-opacity="0.3"/>
<path d="M153.009 118.342C151.874 118.342 150.954 119.261 150.954 120.394C150.954 121.528 151.874 122.447 153.009 122.447C154.143 122.447 155.063 121.528 155.063 120.394C155.063 119.261 154.143 118.342 153.009 118.342Z" fill="#B4B9BB" fill-opacity="0.3"/>
<path d="M165.577 118.342C164.368 118.342 163.522 119.308 163.522 120.395C163.522 121.24 164.127 122.085 164.973 122.327L167.51 120.878C167.51 120.757 167.631 120.636 167.631 120.395C167.631 119.308 166.785 118.342 165.577 118.342Z" fill="#B4B9BB" fill-opacity="0.3"/>
<path d="M153.009 98.7793C154.096 98.7793 155.063 97.8132 155.063 96.7264C155.063 95.6396 154.096 94.6736 153.009 94.6736C151.8 94.6736 150.954 95.6396 150.954 96.7264C150.954 97.8132 151.921 98.7793 153.009 98.7793Z" fill="#B4B9BB" fill-opacity="0.3"/>
<path d="M90.1663 51.4429C90.2871 51.4429 90.408 51.4429 90.5288 51.4429L88.2326 50.1145C88.4743 50.8391 89.1994 51.4429 90.1663 51.4429Z" fill="#B4B9BB" fill-opacity="0.3"/>
<path d="M127.872 75.1113C128.597 75.1113 129.322 74.6283 129.684 74.0245L126.18 71.9717C126.059 72.2132 125.938 72.5754 125.938 73.0585C125.817 74.1453 126.784 75.1113 127.872 75.1113Z" fill="#B4B9BB" fill-opacity="0.3"/>
<path d="M180.2 108.56C180.2 107.473 179.233 106.507 178.145 106.507C176.937 106.507 175.97 107.473 176.091 108.56C176.091 109.647 177.058 110.613 178.145 110.613C179.233 110.613 180.2 109.647 180.2 108.56Z" fill="#B4B9BB" fill-opacity="0.3"/>
<path d="M163.522 96.7264C163.522 97.8132 164.489 98.7793 165.577 98.7793C166.665 98.7793 167.631 97.8132 167.631 96.7264C167.631 96.4849 167.631 96.2434 167.51 96.0019L165.335 94.7943C164.248 94.7943 163.522 95.7604 163.522 96.7264Z" fill="#B4B9BB" fill-opacity="0.3"/>
<path d="M140.44 98.7793C141.528 98.7793 142.494 97.8132 142.494 96.7264C142.494 95.6396 141.528 94.6736 140.44 94.6736C139.231 94.6736 138.385 95.6396 138.385 96.7264C138.385 97.8132 139.352 98.7793 140.44 98.7793Z" fill="#B4B9BB" fill-opacity="0.3"/>
<path d="M77.7182 51.4429C78.8059 51.4429 79.7727 50.5976 79.7727 49.39C79.7727 48.3032 78.9268 47.3371 77.7182 47.3371C76.5097 47.3371 75.5429 48.3032 75.6638 49.39C75.6638 50.4768 76.6306 51.4429 77.7182 51.4429Z" fill="#B4B9BB" fill-opacity="0.3"/>
<path d="M77.7182 75.1113C78.8059 75.1113 79.7727 74.1453 79.7727 73.0585C79.7727 71.9716 78.8059 71.0056 77.7182 71.0056C76.5097 71.0056 75.5429 71.8509 75.6638 73.0585C75.6638 74.1453 76.6306 75.1113 77.7182 75.1113Z" fill="#B4B9BB" fill-opacity="0.3"/>
<path d="M77.7182 63.2764C78.8059 63.2764 79.7727 62.3103 79.7727 61.2235C79.7727 60.1367 78.8059 59.1706 77.7182 59.1706C76.5097 59.1706 75.5429 60.1367 75.6638 61.2235C75.6638 62.3103 76.6306 63.2764 77.7182 63.2764Z" fill="#B4B9BB" fill-opacity="0.3"/>
<path d="M77.7182 86.9443C78.8059 86.9443 79.7727 86.099 79.7727 84.8915C79.7727 83.8047 78.9268 82.8386 77.7182 82.8386C76.5097 82.8386 75.5429 83.8047 75.6638 84.8915C75.6638 85.9783 76.5097 86.9443 77.7182 86.9443Z" fill="#B4B9BB" fill-opacity="0.3"/>
<path d="M75.6638 132.228C75.6638 133.315 76.5097 134.281 77.7182 134.281C78.8059 134.281 79.7727 133.436 79.7727 132.228C79.7727 131.142 78.9268 130.176 77.7182 130.176C76.5097 130.296 75.5429 131.142 75.6638 132.228Z" fill="#B4B9BB" fill-opacity="0.3"/>
<path d="M77.7182 118.342C76.5097 118.462 75.6638 119.308 75.6638 120.394C75.6638 121.481 76.5097 122.447 77.7182 122.447C78.8059 122.447 79.7727 121.602 79.7727 120.394C79.7727 119.308 78.9268 118.342 77.7182 118.342Z" fill="#B4B9BB" fill-opacity="0.3"/>
<path d="M77.7182 98.7793C78.8059 98.7793 79.7727 97.8132 79.7727 96.7264C79.7727 95.6396 78.8059 94.6736 77.7182 94.6736C76.5097 94.6736 75.5429 95.6396 75.6638 96.7264C75.6638 97.8132 76.6306 98.7793 77.7182 98.7793Z" fill="#B4B9BB" fill-opacity="0.3"/>
<path d="M65.1499 169.905C66.2375 169.905 67.2043 169.059 67.2043 167.852C67.2043 166.765 66.3584 165.799 65.1499 165.799C63.9414 165.799 63.0954 166.765 63.0954 167.852C63.0954 168.939 63.9414 169.905 65.1499 169.905Z" fill="#B4B9BB" fill-opacity="0.3"/>
<path d="M77.4765 110.493C78.6851 110.614 79.6519 109.768 79.7727 108.561C79.7727 107.474 78.8059 106.508 77.7182 106.508C76.5097 106.508 75.5429 107.474 75.5429 108.561C75.6638 109.648 76.3889 110.372 77.4765 110.493Z" fill="#B4B9BB" fill-opacity="0.3"/>
<path d="M65.1499 110.613C66.2375 110.613 67.2043 109.647 67.2043 108.56C67.2043 107.473 66.2375 106.507 65.1499 106.507C63.9414 106.628 62.9746 107.473 63.0954 108.56C63.0954 109.647 64.0622 110.613 65.1499 110.613Z" fill="#B4B9BB" fill-opacity="0.3"/>
<path d="M65.1499 75.1113C66.2375 75.1113 67.2043 74.1453 67.2043 73.0585C67.2043 71.9716 66.2375 71.0056 65.1499 71.0056C63.9414 71.0056 63.0954 71.9716 63.0954 73.0585C63.0954 74.1453 64.0622 75.1113 65.1499 75.1113Z" fill="#B4B9BB" fill-opacity="0.3"/>
<path d="M65.1499 158.071C66.2375 158.071 67.2043 157.226 67.2043 156.018C67.2043 154.931 66.3584 153.965 65.1499 153.965C63.9414 153.965 63.0954 154.931 63.0954 156.018C63.0954 157.105 63.9414 158.071 65.1499 158.071Z" fill="#B4B9BB" fill-opacity="0.3"/>
<path d="M75.5432 144.546C75.664 145.753 76.6308 146.599 77.8393 146.478C79.0478 146.357 79.8938 145.391 79.7729 144.183C79.7729 143.097 78.8061 142.131 77.7185 142.131C76.51 142.131 75.5432 143.097 75.5432 144.183C75.5432 144.304 75.5432 144.425 75.5432 144.546Z" fill="#B4B9BB" fill-opacity="0.3"/>
<path d="M102.735 122.447C103.822 122.447 104.789 121.602 104.789 120.394C104.789 119.308 103.943 118.342 102.735 118.342C101.647 118.462 100.68 119.308 100.68 120.394C100.68 121.481 101.526 122.447 102.735 122.447Z" fill="#B4B9BB" fill-opacity="0.3"/>
<path d="M65.1499 98.7793C66.2375 98.7793 67.2043 97.8132 67.2043 96.7264C67.2043 95.6396 66.2375 94.6736 65.1499 94.6736C63.9414 94.6736 63.0954 95.6396 63.0954 96.7264C63.0954 97.8132 64.0622 98.7793 65.1499 98.7793Z" fill="#B4B9BB" fill-opacity="0.3"/>
<path d="M65.1499 146.237C66.2375 146.237 67.2043 145.271 67.2043 144.184C67.2043 143.097 66.2375 142.131 65.1499 142.131C63.9414 142.131 62.9746 143.097 63.0954 144.184C63.0954 145.271 64.0622 146.237 65.1499 146.237Z" fill="#B4B9BB" fill-opacity="0.3"/>
<path d="M65.1499 122.447C66.2375 122.447 67.2043 121.602 67.2043 120.394C67.2043 119.308 66.3584 118.342 65.1499 118.342C63.9414 118.462 63.0954 119.308 63.0954 120.394C63.0954 121.481 63.9414 122.447 65.1499 122.447Z" fill="#B4B9BB" fill-opacity="0.3"/>
<path d="M65.1499 134.281C66.2375 134.281 67.2043 133.436 67.2043 132.228C67.2043 131.142 66.3584 130.176 65.1499 130.176C63.9414 130.296 63.0954 131.142 63.0954 132.228C63.0954 133.315 63.9414 134.281 65.1499 134.281Z" fill="#B4B9BB" fill-opacity="0.3"/>
<path d="M65.1501 82.8389C64.0625 82.9597 63.2165 83.805 63.2165 84.771C63.0957 85.9786 63.9416 86.9447 65.1501 87.0654C65.271 87.0654 65.3918 87.0654 65.5127 87.0654C66.7212 86.9447 67.5671 85.9786 67.4463 84.771C67.3254 83.5635 66.3586 82.7182 65.1501 82.8389Z" fill="#B4B9BB" fill-opacity="0.3"/>
<path d="M88.7158 166.523L89.8035 165.92C89.3201 165.92 88.9575 166.161 88.7158 166.523Z" fill="#B4B9BB" fill-opacity="0.3"/>
<path d="M104.789 156.018C104.789 154.931 103.943 153.965 102.735 153.965C101.647 153.965 100.68 154.931 100.68 156.018C100.68 157.105 101.526 158.071 102.735 158.071C102.976 158.071 103.218 158.071 103.46 157.95L104.064 157.588C104.547 157.226 104.789 156.622 104.789 156.018Z" fill="#B4B9BB" fill-opacity="0.3"/>
<path d="M90.166 146.237C91.2537 146.237 92.2205 145.271 92.2205 144.184C92.2205 143.097 91.2537 142.131 90.166 142.131C89.0783 142.131 88.1115 143.097 88.1115 144.184C88.1115 145.271 89.0783 146.237 90.166 146.237Z" fill="#B4B9BB" fill-opacity="0.3"/>
<path d="M90.166 153.965C89.0313 153.965 88.1115 154.884 88.1115 156.018C88.1115 157.152 89.0313 158.071 90.166 158.071C91.3006 158.071 92.2205 157.152 92.2205 156.018C92.2205 154.884 91.3006 153.965 90.166 153.965Z" fill="#B4B9BB" fill-opacity="0.3"/>
<path d="M102.735 75.1113C103.822 75.1113 104.789 74.1453 104.789 73.0585C104.789 71.9716 103.822 71.0056 102.735 71.0056C101.647 71.0056 100.68 71.8509 100.68 73.0585C100.68 74.1453 101.647 75.1113 102.735 75.1113Z" fill="#B4B9BB" fill-opacity="0.3"/>
<path d="M102.735 63.2764C103.822 63.2764 104.789 62.3103 104.789 61.2235C104.789 60.1367 103.822 59.1706 102.735 59.1706C101.647 59.1706 100.68 60.1367 100.68 61.2235C100.68 62.3103 101.647 63.2764 102.735 63.2764Z" fill="#B4B9BB" fill-opacity="0.3"/>
<path d="M102.735 98.7793C103.822 98.7793 104.789 97.8132 104.789 96.7264C104.789 95.6396 103.822 94.6736 102.735 94.6736C101.647 94.6736 100.68 95.6396 100.68 96.7264C100.68 97.8132 101.647 98.7793 102.735 98.7793Z" fill="#B4B9BB" fill-opacity="0.3"/>
<path d="M102.735 110.613C103.822 110.613 104.789 109.647 104.789 108.56C104.789 107.473 103.822 106.507 102.735 106.507C101.647 106.628 100.68 107.473 100.68 108.56C100.68 109.647 101.647 110.613 102.735 110.613Z" fill="#B4B9BB" fill-opacity="0.3"/>
<path d="M102.735 86.9443C103.822 86.9443 104.789 85.9783 104.789 84.8915C104.789 83.8047 103.943 82.8386 102.735 82.8386C101.647 82.8386 100.68 83.8047 100.68 84.8915C100.68 85.9783 101.526 86.9443 102.735 86.9443Z" fill="#B4B9BB" fill-opacity="0.3"/>
<path d="M90.166 98.7793C91.2537 98.7793 92.2205 97.8132 92.2205 96.7264C92.2205 95.6396 91.2537 94.6736 90.166 94.6736C89.0783 94.6736 88.1115 95.6396 88.1115 96.7264C88.1115 97.8132 89.0783 98.7793 90.166 98.7793Z" fill="#B4B9BB" fill-opacity="0.3"/>
<path d="M90.166 59.1706C89.0313 59.1706 88.1115 60.0897 88.1115 61.2235C88.1115 62.3573 89.0313 63.2764 90.166 63.2764C91.3006 63.2764 92.2205 62.3573 92.2205 61.2235C92.2205 60.0897 91.3006 59.1706 90.166 59.1706Z" fill="#B4B9BB" fill-opacity="0.3"/>
<path d="M90.166 71.0056C89.0313 71.0056 88.1115 71.9247 88.1115 73.0585C88.1115 74.1922 89.0313 75.1113 90.166 75.1113C91.3006 75.1113 92.2205 74.1922 92.2205 73.0585C92.2205 71.9247 91.3006 71.0056 90.166 71.0056Z" fill="#B4B9BB" fill-opacity="0.3"/>
<path d="M90.166 86.9443C91.2537 86.9443 92.2205 85.9783 92.2205 84.8915C92.2205 83.8047 91.3745 82.8386 90.166 82.8386C89.0783 82.8386 88.1115 83.8047 88.1115 84.8915C88.1115 85.9783 88.9575 86.9443 90.166 86.9443Z" fill="#B4B9BB" fill-opacity="0.3"/>
<path d="M75.6638 167.852C75.6638 168.939 76.6306 169.905 77.7182 169.905C78.8059 169.905 79.7727 169.059 79.7727 167.852C79.7727 166.765 78.9268 165.799 77.7182 165.799C76.5097 165.799 75.5429 166.765 75.6638 167.852Z" fill="#B4B9BB" fill-opacity="0.3"/>
<path d="M90.166 134.281C91.2537 134.281 92.2205 133.436 92.2205 132.228C92.2205 131.142 91.3745 130.176 90.166 130.176C89.0783 130.296 88.1115 131.142 88.1115 132.228C88.1115 133.315 89.0783 134.281 90.166 134.281Z" fill="#B4B9BB" fill-opacity="0.3"/>
<path d="M90.166 122.447C91.2537 122.447 92.2205 121.602 92.2205 120.394C92.2205 119.308 91.3745 118.342 90.166 118.342C89.0783 118.462 88.1115 119.308 88.1115 120.394C88.1115 121.481 89.0783 122.447 90.166 122.447Z" fill="#B4B9BB" fill-opacity="0.3"/>
<path d="M77.7182 153.965C76.5097 153.965 75.5429 154.931 75.6638 156.018C75.6638 157.105 76.5097 158.071 77.7182 158.071C78.8059 158.071 79.7727 157.226 79.7727 156.018C79.7727 154.931 78.9268 153.965 77.7182 153.965Z" fill="#B4B9BB" fill-opacity="0.3"/>
<path d="M90.166 110.613C91.2537 110.613 92.2205 109.647 92.2205 108.56C92.2205 107.473 91.2537 106.507 90.166 106.507C89.0783 106.628 88.1115 107.473 88.1115 108.56C88.1115 109.647 89.0783 110.613 90.166 110.613Z" fill="#B4B9BB" fill-opacity="0.3"/>
</svg>
