<svg width="41" height="39" viewBox="0 0 41 39" fill="none" xmlns="http://www.w3.org/2000/svg">
<path d="M12.3897 16.3878L20.2462 8.81634L28.1026 16.3878L32.6768 11.9796L20.2462 0L7.81564 11.9796L12.3897 16.3878Z" fill="#F1F2F2"/>
<path d="M4.56707 15.1013L0 19.5027L4.56707 23.9041L9.13413 19.5027L4.56707 15.1013Z" fill="#F1F2F2"/>
<path d="M12.3897 22.6123L20.2461 30.1837L28.1026 22.6123L32.6767 27.0205L20.2461 39.0001L7.81555 27.0205H7.79437L12.3897 22.6123Z" fill="#F1F2F2"/>
<path d="M35.8981 15.0908L31.3311 19.4922L35.8981 23.8936L40.4652 19.4922L35.8981 15.0908Z" fill="#F1F2F2"/>
<path d="M24.8838 19.4897L20.2462 15.0203L16.8156 18.3264L16.4132 18.7141L15.6085 19.4897V19.5101L20.2462 23.9795L24.8838 19.5101V19.4897Z" fill="#F1F2F2"/>
</svg>
