<svg width="36" height="34" viewBox="0 0 36 34" fill="none" xmlns="http://www.w3.org/2000/svg">
<path d="M34.7613 6.95579L18.4658 0.185031C18.2691 0.0701673 18.0444 0.00639101 17.814 0H17.7281C17.4953 0.00551963 17.2681 0.0693163 17.0691 0.185031L0.773608 6.95579C0.306058 7.15101 0.00278052 7.59162 1.01869e-05 8.07968V26.1922C-0.00213956 26.7102 0.336137 27.1738 0.845237 27.3503L17.1909 33.0314C17.3751 33.1209 17.5787 33.1678 17.7854 33.1685C17.992 33.1678 18.1956 33.1209 18.3799 33.0314L34.6897 27.3503C35.1988 27.1738 35.5371 26.7102 35.5349 26.1922V8.07968C35.5359 7.59055 35.2314 7.14815 34.7613 6.95579ZM16.4746 30.1943L4.58424 26.0414L16.4746 21.0867V30.1943ZM16.4746 18.4072L2.56432 24.1979V8.9089L16.4746 3.09755V18.4072ZM19.0747 30.1532V21.1004L30.9578 26.0414L19.0747 30.1532ZM32.9491 24.1979L19.0532 18.4277V3.11126L32.9491 8.9089V24.1979Z" fill="#F1F2F2"/>
</svg>
